<svg width="56" height="57" viewBox="0 0 56 57" fill="none" xmlns="http://www.w3.org/2000/svg">
    <g clip-path="url(#clip0_167_1453)">
        <path d="M26.6672 56.4959C19.6697 56.4959 12.674 56.4959 5.67648 56.4959C2.07373 56.4959 0.00224385 54.4372 0.00224385 50.8563C0.000300619 40.9747 -0.00164261 31.0932 0.00224385 21.2116C0.00224385 18.5114 1.67925 16.2154 4.04028 15.9044C5.47438 15.7139 6.95318 15.8675 8.40477 15.7722C9.05187 15.7294 9.75726 15.5817 10.3091 15.2629C18.2297 10.6866 26.127 6.07728 34.0282 1.4738C37.1471 -0.341938 39.9453 0.398741 41.7448 3.53059C43.9659 7.39728 46.1637 11.2776 48.4062 15.1307C48.5966 15.4592 49.0202 15.7664 49.3914 15.8597C51.7407 16.4526 53.3672 18.3772 53.4469 20.8073C53.4858 21.9717 53.4683 23.1401 53.4547 24.3065C53.4411 25.4905 52.9844 25.9493 51.7952 25.9551C48.9775 25.9667 46.1598 25.9473 43.3402 25.9629C38.4296 25.9881 34.343 29.293 33.3073 34.0559C32.3143 38.6205 34.65 43.4126 39.0378 45.3216C40.505 45.9592 42.2092 46.212 43.826 46.3072C46.4726 46.4647 49.1349 46.3442 51.7913 46.3539C53.0777 46.3578 53.445 46.7369 53.4566 48.0471C53.4663 49.1164 53.476 50.1856 53.4547 51.2548C53.3944 54.3361 51.2355 56.4843 48.1458 56.4901C40.9869 56.5057 33.828 56.4959 26.6692 56.4959H26.6672ZM39.17 4.30043C38.1634 2.90461 37.0674 2.68104 35.5264 3.5753C28.7679 7.49837 22.0171 11.4331 15.2663 15.3659C15.1478 15.4339 15.0545 15.5448 14.7688 15.7916C16.0222 15.7916 17.0502 15.7411 18.0704 15.8053C19.0848 15.8694 19.9398 15.5759 20.8065 15.0665C26.6226 11.6431 32.462 8.25849 38.2916 4.85837C38.5909 4.6834 38.8766 4.48706 39.1719 4.30043H39.17ZM35.0698 15.57C35.0892 15.6186 35.1067 15.6692 35.1261 15.7178H45.7634C44.8228 14.0692 43.9484 12.5393 43.0312 10.9354C40.3437 12.5004 37.7067 14.0342 35.0698 15.57Z" fill="#009FE3"/>
        <path d="M47.609 28.496C49.0995 28.496 50.588 28.4785 52.0785 28.4999C54.3734 28.5329 55.9669 30.1309 55.9882 32.4366C56.0096 34.8005 55.998 37.1645 55.9921 39.5304C55.9863 42.1179 54.5911 43.7101 51.9833 43.7723C48.7828 43.8481 45.5686 43.8481 42.3759 43.6478C38.6566 43.4146 35.7612 40.1758 35.6018 36.381C35.4503 32.7787 38.1319 29.2406 41.7036 28.7215C43.6332 28.4416 45.6367 28.671 47.6071 28.671V28.4979L47.609 28.496ZM43.2776 38.6206C44.6981 38.6186 45.831 37.5086 45.8271 36.1264C45.8213 34.7966 44.599 33.5855 43.264 33.5874C41.894 33.5874 40.7494 34.7519 40.7533 36.14C40.7572 37.5708 41.8299 38.6244 43.2776 38.6206Z" fill="#009FE3"/>
    </g>
    <defs>
        <clipPath id="clip0_167_1453">
            <rect width="56" height="56" fill="white" transform="translate(0 0.5)"/>
        </clipPath>
    </defs>
</svg>
