<svg width="56" height="57" viewBox="0 0 56 57" fill="none" xmlns="http://www.w3.org/2000/svg">
    <g clip-path="url(#clip0_167_1439)">
        <path d="M55.9958 56.5002H39.4746V55.463C39.4746 48.4307 39.4533 41.3964 39.4999 34.364C39.5057 33.4339 39.1909 33.0116 38.3863 32.6458C34.2759 30.7758 30.1831 28.8689 26.1019 26.9386C23.0351 25.4889 22.1431 21.858 24.1818 19.2914C25.6102 17.4934 28.0259 16.968 30.3036 18.0149C34.5811 19.9821 38.845 21.9786 43.1166 23.9634C45.7189 25.1737 48.327 26.3743 50.9253 27.5944C54.303 29.1802 56.0132 31.8227 56.0016 35.586C55.9822 42.165 55.9958 48.7439 55.9958 55.3229V56.4982V56.5002Z" fill="#009FE3"/>
        <path d="M19.9231 20.8325C19.5033 24.6153 20.8773 27.5146 24.1306 29.62C21.8491 30.6941 19.6646 31.7663 17.4394 32.747C16.7301 33.0584 16.5221 33.4378 16.526 34.1948C16.5571 41.2582 16.5454 48.3217 16.5454 55.3852V56.4866H0.0243134V55.4047C0.0243134 48.8588 0.0826164 42.3129 0.000992203 35.769C-0.0456502 32.0154 1.55185 29.3379 4.85957 27.7462C9.71038 25.4111 14.6175 23.1948 19.5033 20.9298C19.6122 20.8792 19.7385 20.8734 19.9212 20.8306L19.9231 20.8325Z" fill="#009FE3"/>
        <path d="M19.911 56.4729C19.1783 50.6392 23.1099 47.3254 27.055 46.7221C24.9814 46.1248 23.3742 45.2199 22.383 43.4901C21.3822 41.7446 21.1353 39.9194 21.8039 37.9969C22.8145 35.0976 25.4906 33.3852 28.6914 33.5915C31.352 33.7607 33.929 36.0802 34.4187 38.746C35.095 42.4237 33.7268 44.5136 29.1326 46.7416C31.4744 47.1522 33.3304 48.2535 34.6927 50.1332C36.059 52.0168 36.3777 54.1456 36.1114 56.4729H19.911Z" fill="#009FE3"/>
        <path d="M28.0087 14.3972C25.9953 12.4553 23.7895 10.4977 21.7916 8.3456C20.3399 6.78307 20.4584 4.26512 21.7527 2.48466C23.0004 0.768405 25.2354 0.0931907 27.2954 0.739217C27.7307 0.875428 28.2827 0.881265 28.7161 0.743109C30.7742 0.0951366 33.0188 0.76646 34.2626 2.47493C35.5569 4.25539 35.6872 6.76945 34.2374 8.33587C32.2434 10.4899 30.0337 12.4455 28.0106 14.3972H28.0087Z" fill="#009FE3"/>
        <path d="M49.401 23.6615C45.7804 23.6615 42.8711 20.7758 42.875 17.1526C42.8789 12.9223 46.5947 10.4783 49.4691 10.5833C53.1033 10.7137 55.9951 13.4943 55.9951 17.1214C55.9951 21.1455 52.5319 23.8814 49.403 23.6615H49.401Z" fill="#009FE3"/>
        <path d="M6.6117 23.6617C3.61881 23.8932 0.0176295 21.2566 0.0254032 17.1178C0.0331769 13.0237 3.61104 10.5835 6.55534 10.5641C9.4666 10.5446 13.1533 12.9497 13.1377 17.1586C13.1222 21.3734 9.43745 23.8874 6.60975 23.6617H6.6117Z" fill="#009FE3"/>
    </g>
    <defs>
        <clipPath id="clip0_167_1439">
            <rect width="56" height="56" fill="white" transform="translate(0 0.5)"/>
        </clipPath>
    </defs>
</svg>
