<svg width="55" height="57" viewBox="0 0 55 57" fill="none" xmlns="http://www.w3.org/2000/svg">
    <g clip-path="url(#clip0_167_1448)">
        <path d="M31.8821 6.19214C31.8821 4.74593 31.8902 3.37548 31.8781 2.00503C31.8727 1.35769 32.0221 0.82333 32.7089 0.573432C33.3767 0.330181 33.7497 0.747563 34.1335 1.16893C37.0419 4.3631 39.9531 7.55462 42.8629 10.7461C43.652 11.6115 43.6372 12.1206 42.8562 12.9819C39.9679 16.1641 37.0891 19.3543 34.2021 22.5378C33.9948 22.7665 33.7793 23.0217 33.5114 23.1546C32.7277 23.5427 31.8969 22.9499 31.8848 21.9982C31.8673 20.5812 31.8807 19.1642 31.8807 17.6303C25.5979 17.6861 20.0085 19.5803 15.1234 23.4258C10.2598 27.2553 7.13724 32.2107 5.57394 38.1578C3.97966 29.9577 5.67896 22.5232 11.0206 16.0485C16.3541 9.5857 23.4045 6.45002 31.8807 6.19347L31.8821 6.19214Z" fill="#009FE3"/>
        <path d="M27.6072 51.4642C27.6072 52.9104 27.5992 54.2808 27.6113 55.6513C27.6167 56.2986 27.4672 56.833 26.7805 57.0829C26.1126 57.3261 25.7396 56.9087 25.3559 56.4874C22.4474 53.2932 19.5363 50.1017 16.6264 46.9102C15.8374 46.0448 15.8522 45.5357 16.6332 44.6744C19.5214 41.4922 22.4003 38.302 25.2872 35.1185C25.4946 34.8898 25.71 34.6346 25.978 34.5017C26.7616 34.1136 27.5924 34.7064 27.6046 35.6581C27.6221 37.0751 27.6086 38.4921 27.6086 40.026C33.8914 39.9702 39.4808 38.076 44.3659 34.2305C49.2295 30.401 52.3521 25.4456 53.9154 19.4985C55.5097 27.6986 53.8104 35.1331 48.4688 41.6078C43.1352 48.0706 36.0849 51.2063 27.6086 51.4628L27.6072 51.4642Z" fill="#009FE3"/>
    </g>
    <defs>
        <clipPath id="clip0_167_1448">
            <rect width="55" height="56" fill="white" transform="translate(0 0.5)"/>
        </clipPath>
    </defs>
</svg>
