<svg width="64" height="64" viewBox="0 0 64 64" fill="none" xmlns="http://www.w3.org/2000/svg">
    <path d="M51.2531 31.436C47.6025 33.5308 43.7729 33.9005 39.823 32.4883C32.5341 29.8858 27.939 21.7061 31.7368 14.002C33.091 11.2566 34.6366 8.60722 36.2264 5.66706C35.0193 4.19081 33.6823 2.53712 32.3231 0.905617C31.327 -0.289671 30.7775 -0.292136 29.7937 0.915475C27.7501 3.42435 25.6721 5.90611 23.7143 8.48153C18.7537 15.0026 14.0359 21.6864 10.5619 29.1662C8.50848 33.5875 7.41184 38.0532 8.32448 43.0611C10.8539 56.9437 23.8125 64.4457 36.9918 61.2812C46.4298 59.0139 52.9925 51.1546 54.0769 41.2546C54.4793 37.5776 53.7236 34.1987 52.2982 30.8223C51.8812 31.0663 51.5672 31.2536 51.2531 31.436ZM36.5797 44.4314C36.5257 46.9156 34.6783 48.7467 32.1931 48.8108C30.4782 48.8552 28.7584 48.801 27.0435 48.8281C25.9321 48.8453 25.5273 48.3154 25.547 47.236C25.5862 45.1436 25.5592 43.0488 25.5592 40.9539C25.5592 38.901 25.5813 36.8481 25.5494 34.7951C25.5322 33.7526 25.9812 33.2844 27.0116 33.2967C28.7682 33.3164 30.5273 33.2622 32.2839 33.3164C34.6955 33.3928 36.5208 35.2289 36.5772 37.6564C36.6312 39.9139 36.6287 42.1739 36.5772 44.4314H36.5797ZM32.7574 17.9576C31.7171 24.8114 37.2789 31.0614 44.2586 31.0786C52.3007 31.1797 58.8708 22.5391 54.7148 14.3347C52.1928 9.35643 48.9249 4.92524 45.3774 0.673953C44.5997 -0.257633 43.9961 -0.220665 43.162 0.767605C39.9015 4.62457 36.8912 8.66637 34.5655 13.1641C33.7853 14.6748 33.01 16.3014 32.7598 17.9551L32.7574 17.9576ZM39.6095 18.2558C41.3244 17.4696 42.5609 16.2719 43.2969 14.5073C43.4319 14.1869 43.9716 13.8591 44.3224 13.8591C44.6683 13.8591 45.1958 14.1967 45.3283 14.5196C46.0643 16.2866 47.2983 17.4967 49.0304 18.241C49.4327 18.4135 49.8032 18.6526 50.3576 18.9532C49.6462 19.7074 49.3935 20.1855 49.0083 20.3482C47.3008 21.0752 46.1232 22.2655 45.3725 23.9661C45.2056 24.3456 44.6732 24.7867 44.3102 24.7892C43.9495 24.7892 43.422 24.3407 43.2577 23.9636C42.5168 22.2532 41.3392 21.0727 39.6267 20.3408C39.2685 20.188 38.9103 19.631 38.8834 19.2367C38.8613 18.9187 39.271 18.4111 39.6095 18.2558ZM34.3741 37.7402C34.4183 39.9534 34.4207 42.1689 34.3741 44.3821C34.3471 45.6735 33.4835 46.541 32.2078 46.5903C30.7873 46.6445 29.3619 46.6026 27.8507 46.6026V35.5197C29.3668 35.5197 30.7898 35.4778 32.2127 35.532C33.4909 35.5813 34.3496 36.4464 34.3741 37.7427V37.7402ZM44.4549 21.0924C43.7778 20.501 43.1375 19.9415 42.4481 19.3377C43.1595 18.6797 43.8048 18.0808 44.4574 17.4745C44.9529 18.0143 45.5295 18.6403 46.1404 19.3057C45.5172 19.9637 44.9382 20.5774 44.4524 21.09L44.4549 21.0924Z" fill="#009FE3"/>
</svg>
