<svg width="64" height="64" viewBox="0 0 64 64" fill="none" xmlns="http://www.w3.org/2000/svg">
    <path d="M1.15311 41.1786C2.2325 38.3835 3.9831 36.1293 6.70425 34.7498C10.3869 32.8743 14.26 32.8022 18.1784 33.758C21.7703 34.6416 24.809 36.481 27.2217 39.2851C27.5845 39.7089 27.8657 39.763 28.3737 39.5015C29.5256 38.9064 30.732 38.4376 32.0381 38.2843C33.045 37.9597 34.0971 37.9507 35.1312 37.9146C37.1085 37.8515 39.0224 38.2392 40.8819 38.9515C41.8524 39.3212 42.7776 39.781 43.7481 40.3671C43.7481 40.0245 43.7481 39.781 43.7481 39.5376C43.7119 36.2916 43.6665 33.0547 44.1382 29.8267C44.6098 26.5537 45.2811 23.3348 46.5146 20.2512C46.6054 20.0167 46.8412 19.7733 46.5872 19.5118C45.4443 18.3397 44.12 17.6183 42.4057 17.8438C41.3807 17.979 40.3649 18.2765 39.3036 18.0602C37.7526 17.7446 36.5462 16.9511 35.5847 15.7158C34.1606 13.8945 33.1901 11.9018 33.1992 9.55754C33.2082 7.00586 34.1878 4.76976 35.8205 2.84021C37.0632 1.37052 38.6142 0.351645 40.6007 0.117215C40.8365 -0.0360662 41.1268 0.162298 41.3626 0H41.9885C42.2697 0.162298 42.5962 -0.0360662 42.8774 0.117215C44.0928 0.162298 45.2085 0.595092 46.2879 1.08199C48.7097 2.17299 50.7234 3.83203 52.4921 5.77059C53.6985 7.09602 54.7597 8.54769 55.5216 10.1797C56.5648 12.4158 57.1906 14.7871 57.8346 17.1495C58.7054 20.3323 59.3947 23.5602 60.0932 26.7792C60.6465 29.3489 61.1363 31.9366 61.6079 34.5244C62.0887 37.1301 62.5513 39.745 62.9504 42.3598C63.2225 44.136 63.4583 45.9303 63.6307 47.7246C63.7395 48.9058 63.8211 50.0779 63.9118 51.2591C64.0298 52.6927 64.066 54.1173 63.7849 55.5329C63.5309 56.8043 63.0048 57.2912 61.7712 57.4895C58.0704 58.1026 54.5058 59.1937 51.0045 60.5191C49.3991 61.1232 47.8661 61.8986 46.2244 62.3855C43.9205 63.0708 41.5531 63.4314 39.1585 63.6478C36.782 63.8642 34.4146 64.0626 32.0291 63.9814C28.8272 64.0626 25.6434 63.7921 22.4597 63.3954C18.9494 62.9536 15.4936 62.2683 12.1465 61.1232C9.05351 60.0592 6.16909 58.6346 3.76541 56.3625C1.24382 53.9911 -0.044195 51.0607 0.00115744 47.5894C0.0283689 45.3983 0.354907 43.2434 1.15311 41.1786Z" fill="#009FE3"/>
</svg>
