<svg width="1345" height="33" viewBox="0 0 1345 33" fill="none" xmlns="http://www.w3.org/2000/svg">
<path d="M11.0617 1.60274V28.9726H11.9003V0.205479H10.7023L4.71221 16.5616L0.838614 27.2466V0.205479H0V28.9726H1.07822L5.95017 15.5753L11.0617 1.60274Z" fill="black"/>
<path d="M30.6665 1.56164V28.9726H31.5451V0.205479H30.1873L23.3187 27.4932L16.45 0.205479H15.0923V28.9726H15.8909V1.56164L22.7995 28.8904H23.7979L30.6665 1.56164Z" fill="black"/>
<path d="M35.6258 13.9726V1.06849H45.4097V0.205479H34.7473V28.9726H45.4097V28.1096H35.6258V14.7945H43.8522V13.9726H35.6258Z" fill="black"/>
<path d="M60.7334 0C56.4605 0 54.8232 3.24658 54.8232 7.27397V14.1781H49.3921V0.205479H48.5136V28.9726H49.3921V15H54.8232V21.9041C54.8232 25.9315 56.4605 29.1781 60.7334 29.1781C65.0063 29.1781 66.7235 25.9315 66.7235 21.9041V7.27397C66.7235 3.24658 65.0063 0 60.7334 0ZM60.7334 0.821917C64.4473 0.821917 65.845 3.69863 65.845 7.23288V21.9452C65.845 25.4795 64.4473 28.3562 60.7334 28.3562C57.0195 28.3562 55.7017 25.4795 55.7017 21.9452V7.23288C55.7017 3.69863 57.0195 0.821917 60.7334 0.821917Z" fill="black"/>
<path d="M76.7132 28.9726V1.06849H82.8232V0.205479H69.7248V1.06849H75.8347V28.9726H76.7132Z" fill="black"/>
<path d="M91.6642 0C87.4312 0 85.8338 3.28767 85.8338 7.27397V21.9041C85.8338 25.8904 87.4312 29.1781 91.6642 29.1781C95.9371 29.1781 97.5345 25.8904 97.5345 21.9041V18.7808H96.6559V21.9452C96.6559 25.4384 95.378 28.3151 91.7041 28.3151C87.9902 28.3151 86.7124 25.4384 86.7124 21.9452V7.23288C86.7124 3.73973 87.9902 0.821917 91.7041 0.821917C95.378 0.821917 96.6559 3.73973 96.6559 7.23288V9.49315H97.5345V7.27397C97.5345 3.28767 95.9371 0 91.6642 0Z" fill="black"/>
<path d="M111.756 15.6986V28.9726H112.634V0.205479H107.083C102.93 0.205479 101.333 2.71233 101.333 6.65753V9.24658C101.333 12.7808 102.691 14.7123 105.766 15.2877C102.651 15.7808 101.333 17.8767 101.333 21.0411V25.5616C101.333 26.6712 101.213 28.0685 100.574 28.9726H101.533C102.092 28.0685 102.211 26.7945 102.211 25.5616V21.0411C102.211 16.8082 104.687 15.6986 108.321 15.6986H111.756ZM111.756 1.06849V14.8356H108.321C104.448 14.8356 102.211 13.8082 102.211 9.36986V6.73973C102.211 3.24658 103.529 1.06849 107.123 1.06849H111.756Z" fill="black"/>
<path d="M133.007 1.06849V28.9726H133.885V0.205479H122.025V28.9726H122.903V1.06849H133.007Z" fill="black"/>
<path d="M137.078 0.205479V28.9726H137.957V16.7671H141.95C146.383 16.7671 148.38 14.589 148.38 10.0274V7.15069C148.38 3.12329 146.902 0.205479 142.589 0.205479H137.078ZM137.957 15.9041V1.06849H142.589C146.343 1.06849 147.501 3.57534 147.501 7.10959V10.0685C147.501 14.137 145.864 15.9041 141.95 15.9041H137.957Z" fill="black"/>
<path d="M151.39 21.9041C151.39 25.9315 153.067 29.1781 157.3 29.1781C161.613 29.1781 163.29 25.9315 163.29 21.9041V7.27397C163.29 3.24658 161.613 0 157.3 0C153.067 0 151.39 3.24658 151.39 7.27397V21.9041ZM152.268 7.23288C152.268 3.69863 153.586 0.821917 157.3 0.821917C161.054 0.821917 162.411 3.69863 162.411 7.23288V21.9452C162.411 25.4795 161.054 28.3562 157.3 28.3562C153.586 28.3562 152.268 25.4795 152.268 21.9452V7.23288Z" fill="black"/>
<path d="M173.272 28.9726V1.06849H179.382V0.205479H166.284V1.06849H172.394V28.9726H173.272Z" fill="black"/>
<path d="M193.495 1.60274V28.9726H194.333V0.205479H193.135L187.145 16.5616L183.272 27.2466V0.205479H182.433V28.9726H183.511L188.383 15.5753L193.495 1.60274Z" fill="black"/>
<path d="M197.525 0.205479V28.9726H203.156C207.389 28.9726 209.066 26.4247 209.066 22.3562V19.8082C209.066 16.4795 207.828 14.137 204.514 13.6438C207.668 13.1507 208.507 11.2192 208.507 8.0137V6.16438C208.507 2.30137 207.189 0.205479 203.116 0.205479H197.525ZM198.404 13.274V1.06849H203.116C206.63 1.06849 207.629 2.83562 207.629 6.20548V8.13699C207.629 12.3288 205.911 13.274 202.038 13.274H198.404ZM198.404 28.1096V14.0959H202.437C206.271 14.0959 208.188 15.6164 208.188 19.7671V22.3562C208.188 25.9726 206.83 28.1096 203.156 28.1096H198.404Z" fill="black"/>
<path d="M212.149 21.9041C212.149 25.9315 213.826 29.1781 218.059 29.1781C222.372 29.1781 224.049 25.9315 224.049 21.9041V7.27397C224.049 3.24658 222.372 0 218.059 0C213.826 0 212.149 3.24658 212.149 7.27397V21.9041ZM213.027 7.23288C213.027 3.69863 214.345 0.821917 218.059 0.821917C221.813 0.821917 223.17 3.69863 223.17 7.23288V21.9452C223.17 25.4795 221.813 28.3562 218.059 28.3562C214.345 28.3562 213.027 25.4795 213.027 21.9452V7.23288Z" fill="black"/>
<path d="M238.185 1.06849V28.9726H239.063V0.205479H227.203V28.9726H228.081V1.06849H238.185Z" fill="black"/>
<path d="M242.216 21.9041C242.216 25.9315 243.893 29.1781 248.126 29.1781C252.439 29.1781 254.116 25.9315 254.116 21.9041V7.27397C254.116 3.24658 252.439 0 248.126 0C243.893 0 242.216 3.24658 242.216 7.27397V21.9041ZM243.095 7.23288C243.095 3.69863 244.412 0.821917 248.126 0.821917C251.88 0.821917 253.238 3.69863 253.238 7.23288V21.9452C253.238 25.4795 251.88 28.3562 248.126 28.3562C244.412 28.3562 243.095 25.4795 243.095 21.9452V7.23288Z" fill="black"/>
<path d="M269.25 28.9726H270.209L260.824 13.8082L269.49 0.205479H268.532L258.149 16.4384V0.205479H257.27V28.9726H258.149V17.9589L260.265 14.6712L269.25 28.9726Z" fill="black"/>
<path d="M285.558 22.1918L287.195 28.9726H288.074L281.165 0.164384H279.927L273.179 28.9726H273.977L275.615 22.1918H285.558ZM280.526 1.23288L285.398 21.3699H275.774L280.526 1.23288Z" fill="black"/>
<path d="M296.99 0C292.717 0 291.16 3.24658 291.16 7.23288V8.46575H291.958V7.23288C291.958 3.69863 293.236 0.821917 296.95 0.821917C300.664 0.821917 301.942 3.69863 301.942 7.27397V8.13699C301.942 10.9726 299.945 13.5616 297.15 13.5616H295.313V14.3836H297.11C300.065 14.3836 301.942 16.6438 301.942 19.6849V21.9041C301.942 25.4384 300.664 28.3562 296.95 28.3562C293.236 28.3562 291.998 25.4384 291.998 21.9452V19.8082H291.12V21.9041C291.12 25.9315 292.717 29.1781 296.99 29.1781C301.263 29.1781 302.82 25.9315 302.82 21.9041V19.6849C302.82 16.9315 301.463 14.589 298.747 13.9315C301.303 13.1507 302.82 10.7671 302.82 8.0137V7.27397C302.82 3.24658 301.263 0 296.99 0Z" fill="black"/>
<path d="M318.239 22.1918L319.876 28.9726H320.754L313.846 0.164384H312.608L305.859 28.9726H306.658L308.295 22.1918H318.239ZM313.207 1.23288L318.079 21.3699H308.455L313.207 1.23288Z" fill="black"/>
<path d="M334.822 15V28.9726H335.7V0.205479H334.822V14.1781H324.718V0.205479H323.84V28.9726H324.718V15H334.822Z" fill="black"/>
<path d="M349.955 1.60274V28.9726H350.794V0.205479H349.596L343.605 16.5616L339.732 27.2466V0.205479H338.893V28.9726H339.971L344.843 15.5753L349.955 1.60274Z" fill="black"/>
<path d="M365.087 15.6986V28.9726H365.966V0.205479H360.415C356.262 0.205479 354.664 2.71233 354.664 6.65753V9.24658C354.664 12.7808 356.022 14.7123 359.097 15.2877C355.982 15.7808 354.664 17.8767 354.664 21.0411V25.5616C354.664 26.6712 354.545 28.0685 353.906 28.9726H354.864C355.423 28.0685 355.543 26.7945 355.543 25.5616V21.0411C355.543 16.8082 358.019 15.6986 361.653 15.6986H365.087ZM365.087 1.06849V14.8356H361.653C357.779 14.8356 355.543 13.8082 355.543 9.36986V6.73973C355.543 3.24658 356.861 1.06849 360.455 1.06849H365.087Z" fill="black"/>
<path d="M369.156 25.6438V28.9726H370.034V25.6438H369.156Z" fill="black"/>
<path d="M390.394 1.06849V28.9726H391.273V0.205479H379.412V28.9726H380.291V1.06849H390.394Z" fill="black"/>
<path d="M395.344 13.9726V1.06849H405.128V0.205479H394.465V28.9726H405.128V28.1096H395.344V14.7945H403.57V13.9726H395.344Z" fill="black"/>
<path d="M408.232 0.205479V28.9726H409.11V16.7671H413.104C417.536 16.7671 419.533 14.589 419.533 10.0274V7.15069C419.533 3.12329 418.056 0.205479 413.743 0.205479H408.232ZM409.11 15.9041V1.06849H413.743C417.496 1.06849 418.655 3.57534 418.655 7.10959V10.0685C418.655 14.137 417.017 15.9041 413.104 15.9041H409.11Z" fill="black"/>
<path d="M423.462 13.9726V1.06849H433.245V0.205479H422.583V28.9726H433.245V28.1096H423.462V14.7945H431.688V13.9726H423.462Z" fill="black"/>
<path d="M452.802 33V28.1096H450.326V0.205479H440.862L439.704 23.1781C439.624 25.1096 439.464 26.8356 438.226 28.1096H436.23V33H437.108V28.9726H451.924V33H452.802ZM441.701 1.06849H449.448V28.1096H439.225C440.383 26.7945 440.463 25.1096 440.582 23.2192L441.701 1.06849Z" fill="black"/>
<path d="M473.109 1.06849V28.9726H473.987V0.205479H462.127V28.9726H463.006V1.06849H473.109Z" fill="black"/>
<path d="M477.18 0.205479V28.9726H478.059V16.7671H482.052C486.485 16.7671 488.482 14.589 488.482 10.0274V7.15069C488.482 3.12329 487.004 0.205479 482.691 0.205479H477.18ZM478.059 15.9041V1.06849H482.691C486.445 1.06849 487.603 3.57534 487.603 7.10959V10.0685C487.603 14.137 485.966 15.9041 482.052 15.9041H478.059Z" fill="black"/>
<path d="M502.593 1.60274V28.9726H503.432V0.205479H502.234L496.244 16.5616L492.37 27.2466V0.205479H491.532V28.9726H492.61L497.482 15.5753L502.593 1.60274Z" fill="black"/>
<path d="M522.198 1.56164V28.9726H523.077V0.205479H521.719L514.85 27.4932L507.982 0.205479H506.624V28.9726H507.423V1.56164L514.331 28.8904H515.329L522.198 1.56164Z" fill="black"/>
<path d="M527.157 13.9726V1.06849H536.941V0.205479H526.279V28.9726H536.941V28.1096H527.157V14.7945H535.384V13.9726H527.157Z" fill="black"/>
<path d="M551.027 15V28.9726H551.906V0.205479H551.027V14.1781H540.924V0.205479H540.045V28.9726H540.924V15H551.027Z" fill="black"/>
<path d="M555.977 13.9726V1.06849H565.761V0.205479H555.098V28.9726H565.761V28.1096H555.977V14.7945H564.203V13.9726H555.977Z" fill="black"/>
<path d="M579.847 15V28.9726H580.725V0.205479H579.847V14.1781H569.743V0.205479H568.865V28.9726H569.743V15H579.847Z" fill="black"/>
<path d="M594.98 1.60274V28.9726H595.818V0.205479H594.62L588.63 16.5616L584.757 27.2466V0.205479H583.918V28.9726H584.996L589.868 15.5753L594.98 1.60274Z" fill="black"/>
<path d="M599.889 13.9726V1.06849H609.673V0.205479H599.01V28.9726H609.673V28.1096H599.889V14.7945H608.115V13.9726H599.889Z" fill="black"/>
<path d="M628.351 1.56164V28.9726H629.229V0.205479H627.872L621.003 27.4932L614.134 0.205479H612.777V28.9726H613.575V1.56164L620.484 28.8904H621.482L628.351 1.56164Z" fill="black"/>
<path d="M649.614 15V28.9726H650.493V0.205479H649.614V14.1781H639.511V0.205479H638.632V28.9726H639.511V15H649.614Z" fill="black"/>
<path d="M654.564 13.9726V1.06849H664.348V0.205479H653.686V28.9726H664.348V28.1096H654.564V14.7945H662.791V13.9726H654.564Z" fill="black"/>
<path d="M667.412 21.9041C667.412 25.9315 669.089 29.1781 673.322 29.1781C677.635 29.1781 679.312 25.9315 679.312 21.9041V7.27397C679.312 3.24658 677.635 0 673.322 0C669.089 0 667.412 3.24658 667.412 7.27397V21.9041ZM668.29 7.23288C668.29 3.69863 669.608 0.821917 673.322 0.821917C677.076 0.821917 678.434 3.69863 678.434 7.23288V21.9452C678.434 25.4795 677.076 28.3562 673.322 28.3562C669.608 28.3562 668.29 25.4795 668.29 21.9452V7.23288Z" fill="black"/>
<path d="M683.345 12.7397V1.06849H693.368V0.205479H682.466V28.9726H688.297C692.609 28.9726 694.327 26.4658 694.327 22.2329V18.9041C694.327 14.3014 692.17 12.7397 687.857 12.7397H683.345ZM683.345 28.1096V13.6027H687.857C691.611 13.6027 693.448 14.7534 693.448 18.863V22.274C693.448 25.9726 692.05 28.1096 688.297 28.1096H683.345Z" fill="black"/>
<path d="M711.178 28.9726H712.136L705.347 14.0137L711.697 0.205479H710.818L704.788 13.2329L698.758 0.205479H697.84L704.189 14.0137L697.361 28.9726H698.279L704.708 14.8356L711.178 28.9726Z" fill="black"/>
<path d="M715.185 21.9041C715.185 25.9315 716.862 29.1781 721.095 29.1781C725.408 29.1781 727.085 25.9315 727.085 21.9041V7.27397C727.085 3.24658 725.408 0 721.095 0C716.862 0 715.185 3.24658 715.185 7.27397V21.9041ZM716.063 7.23288C716.063 3.69863 717.381 0.821917 721.095 0.821917C724.849 0.821917 726.206 3.69863 726.206 7.23288V21.9452C726.206 25.4795 724.849 28.3562 721.095 28.3562C717.381 28.3562 716.063 25.4795 716.063 21.9452V7.23288Z" fill="black"/>
<path d="M746.692 33V28.1096H744.216V0.205479H734.751L733.593 23.1781C733.513 25.1096 733.354 26.8356 732.116 28.1096H730.119V33H730.998V28.9726H745.813V33H746.692ZM735.59 1.06849H743.337V28.1096H733.114C734.272 26.7945 734.352 25.1096 734.472 23.2192L735.59 1.06849Z" fill="black"/>
<path d="M760.878 1.60274V28.9726H761.716V0.205479H760.518L754.528 16.5616L750.654 27.2466V0.205479H749.816V28.9726H750.894L755.766 15.5753L760.878 1.60274Z" fill="black"/>
<path d="M780.482 1.56164V28.9726H781.361V0.205479H780.003L773.134 27.4932L766.266 0.205479H764.908V28.9726H765.707V1.56164L772.615 28.8904H773.614L780.482 1.56164Z" fill="black"/>
<path d="M784.523 21.9041C784.523 25.9315 786.2 29.1781 790.433 29.1781C794.746 29.1781 796.424 25.9315 796.424 21.9041V7.27397C796.424 3.24658 794.746 0 790.433 0C786.2 0 784.523 3.24658 784.523 7.27397V21.9041ZM785.402 7.23288C785.402 3.69863 786.72 0.821917 790.433 0.821917C794.187 0.821917 795.545 3.69863 795.545 7.23288V21.9452C795.545 25.4795 794.187 28.3562 790.433 28.3562C786.72 28.3562 785.402 25.4795 785.402 21.9452V7.23288Z" fill="black"/>
<path d="M816.76 1.06849V28.9726H817.638V0.205479H805.778V28.9726H806.657V1.06849H816.76Z" fill="black"/>
<path d="M820.831 0.205479V28.9726H821.71V16.7671H825.703C830.136 16.7671 832.133 14.589 832.133 10.0274V7.15069C832.133 3.12329 830.655 0.205479 826.342 0.205479H820.831ZM821.71 15.9041V1.06849H826.342C830.096 1.06849 831.254 3.57534 831.254 7.10959V10.0685C831.254 14.137 829.617 15.9041 825.703 15.9041H821.71Z" fill="black"/>
<path d="M835.143 21.9041C835.143 25.9315 836.82 29.1781 841.053 29.1781C845.366 29.1781 847.043 25.9315 847.043 21.9041V7.27397C847.043 3.24658 845.366 0 841.053 0C836.82 0 835.143 3.24658 835.143 7.27397V21.9041ZM836.021 7.23288C836.021 3.69863 837.339 0.821917 841.053 0.821917C844.807 0.821917 846.164 3.69863 846.164 7.23288V21.9452C846.164 25.4795 844.807 28.3562 841.053 28.3562C837.339 28.3562 836.021 25.4795 836.021 21.9452V7.23288Z" fill="black"/>
<path d="M862.177 28.9726H863.135L853.751 13.8082L862.417 0.205479H861.458L851.075 16.4384V0.205479H850.197V28.9726H851.075V17.9589L853.192 14.6712L862.177 28.9726Z" fill="black"/>
<path d="M866.185 21.9041C866.185 25.9315 867.862 29.1781 872.095 29.1781C876.408 29.1781 878.085 25.9315 878.085 21.9041V7.27397C878.085 3.24658 876.408 0 872.095 0C867.862 0 866.185 3.24658 866.185 7.27397V21.9041ZM867.064 7.23288C867.064 3.69863 868.381 0.821917 872.095 0.821917C875.849 0.821917 877.207 3.69863 877.207 7.23288V21.9452C877.207 25.4795 875.849 28.3562 872.095 28.3562C868.381 28.3562 867.064 25.4795 867.064 21.9452V7.23288Z" fill="black"/>
<path d="M892.221 15V28.9726H893.1V0.205479H892.221V14.1781H882.118V0.205479H881.239V28.9726H882.118V15H892.221Z" fill="black"/>
<path d="M902.083 0C897.85 0 896.253 3.28767 896.253 7.27397V21.9041C896.253 25.8904 897.85 29.1781 902.083 29.1781C906.356 29.1781 907.953 25.8904 907.953 21.9041V18.7808H907.075V21.9452C907.075 25.4384 905.797 28.3151 902.123 28.3151C898.409 28.3151 897.131 25.4384 897.131 21.9452V7.23288C897.131 3.73973 898.409 0.821917 902.123 0.821917C905.797 0.821917 907.075 3.73973 907.075 7.23288V9.49315H907.953V7.27397C907.953 3.28767 906.356 0 902.083 0Z" fill="black"/>
<path d="M925.329 0.205479H924.371L920.976 10.3973L918.301 18.4932L911.832 0.205479H910.913L917.862 19.6849L916.264 24.3699C915.466 26.7123 914.667 28.1507 912.031 28.1507V28.9726C915.306 29.0137 916.264 27.2055 917.143 24.3699L925.329 0.205479Z" fill="black"/>
<path d="M941.567 1.06849V28.9726H942.486V0.205479H932.782L931.943 22.0274C931.863 24.9452 931.823 28.1507 928.189 28.1507V29.0137H928.469C932.462 28.8904 932.662 25.4384 932.822 22.0274L933.62 1.06849H941.567Z" fill="black"/>
<path d="M946.543 12.411V0.205479H945.664V28.9726H951.135C955.488 28.9726 956.965 26.0548 956.965 22.0274V19.1507C956.965 14.589 954.969 12.411 950.496 12.411H946.543ZM946.543 28.1096V13.274H950.496C954.41 13.274 956.087 15.0411 956.087 19.1096V22.0685C956.087 25.6027 954.889 28.1096 951.135 28.1096H946.543Z" fill="black"/>
<path d="M966.922 28.9726V1.06849H973.032V0.205479H959.934V1.06849H966.044V28.9726H966.922Z" fill="black"/>
<path d="M987.144 1.60274V28.9726H987.983V0.205479H986.785L980.795 16.5616L976.921 27.2466V0.205479H976.083V28.9726H977.161L982.033 15.5753L987.144 1.60274Z" fill="black"/>
<path d="M991.175 0.205479V28.9726H992.053V16.7671H996.047C1000.48 16.7671 1002.48 14.589 1002.48 10.0274V7.15069C1002.48 3.12329 1001 0.205479 996.686 0.205479H991.175ZM992.053 15.9041V1.06849H996.686C1000.44 1.06849 1001.6 3.57534 1001.6 7.10959V10.0685C1001.6 14.137 999.96 15.9041 996.047 15.9041H992.053Z" fill="black"/>
<path d="M1005.49 21.9041C1005.49 25.9315 1007.16 29.1781 1011.4 29.1781C1015.71 29.1781 1017.39 25.9315 1017.39 21.9041V7.27397C1017.39 3.24658 1015.71 0 1011.4 0C1007.16 0 1005.49 3.24658 1005.49 7.27397V21.9041ZM1006.36 7.23288C1006.36 3.69863 1007.68 0.821917 1011.4 0.821917C1015.15 0.821917 1016.51 3.69863 1016.51 7.23288V21.9452C1016.51 25.4795 1015.15 28.3562 1011.4 28.3562C1007.68 28.3562 1006.36 25.4795 1006.36 21.9452V7.23288Z" fill="black"/>
<path d="M1020.54 0.205479V28.9726H1026.17C1030.4 28.9726 1032.08 26.4247 1032.08 22.3562V19.8082C1032.08 16.4795 1030.84 14.137 1027.53 13.6438C1030.68 13.1507 1031.52 11.2192 1031.52 8.0137V6.16438C1031.52 2.30137 1030.2 0.205479 1026.13 0.205479H1020.54ZM1021.42 13.274V1.06849H1026.13C1029.65 1.06849 1030.64 2.83562 1030.64 6.20548V8.13699C1030.64 12.3288 1028.93 13.274 1025.05 13.274H1021.42ZM1021.42 28.1096V14.0959H1025.45C1029.29 14.0959 1031.2 15.6164 1031.2 19.7671V22.3562C1031.2 25.9726 1029.85 28.1096 1026.17 28.1096H1021.42Z" fill="black"/>
<path d="M1047.46 22.1918L1049.1 28.9726H1049.98L1043.07 0.164384H1041.83L1035.08 28.9726H1035.88L1037.52 22.1918H1047.46ZM1042.43 1.23288L1047.3 21.3699H1037.68L1042.43 1.23288Z" fill="black"/>
<path d="M1059.89 28.9726V1.06849H1066V0.205479H1052.91V1.06849H1059.01V28.9726H1059.89Z" fill="black"/>
<path d="M1069.93 12.411V0.205479H1069.05V28.9726H1074.52C1078.88 28.9726 1080.36 26.0548 1080.36 22.0274V19.1507C1080.36 14.589 1078.36 12.411 1073.89 12.411H1069.93ZM1069.93 28.1096V13.274H1073.89C1077.8 13.274 1079.48 15.0411 1079.48 19.1096V22.0685C1079.48 25.6027 1078.28 28.1096 1074.52 28.1096H1069.93Z" fill="black"/>
<path d="M1089.27 0C1085.04 0 1083.44 3.28767 1083.44 7.27397V21.9041C1083.44 25.8904 1085.04 29.1781 1089.27 29.1781C1093.55 29.1781 1095.14 25.8904 1095.14 21.9041V18.7808H1094.27V21.9452C1094.27 25.4384 1092.99 28.3151 1089.31 28.3151C1085.6 28.3151 1084.32 25.4384 1084.32 21.9452V7.23288C1084.32 3.73973 1085.6 0.821917 1089.31 0.821917C1092.99 0.821917 1094.27 3.73973 1094.27 7.23288V9.49315H1095.14V7.27397C1095.14 3.28767 1093.55 0 1089.27 0Z" fill="black"/>
<path d="M1109.37 15.6986V28.9726H1110.24V0.205479H1104.69C1100.54 0.205479 1098.94 2.71233 1098.94 6.65753V9.24658C1098.94 12.7808 1100.3 14.7123 1103.38 15.2877C1100.26 15.7808 1098.94 17.8767 1098.94 21.0411V25.5616C1098.94 26.6712 1098.82 28.0685 1098.18 28.9726H1099.14C1099.7 28.0685 1099.82 26.7945 1099.82 25.5616V21.0411C1099.82 16.8082 1102.3 15.6986 1105.93 15.6986H1109.37ZM1109.37 1.06849V14.8356H1105.93C1102.06 14.8356 1099.82 13.8082 1099.82 9.36986V6.73973C1099.82 3.24658 1101.14 1.06849 1104.73 1.06849H1109.37Z" fill="black"/>
<path d="M1125.42 0C1121.19 0 1119.59 3.28767 1119.59 7.27397V21.9041C1119.59 25.8904 1121.19 29.1781 1125.42 29.1781C1129.7 29.1781 1131.3 25.8904 1131.3 21.9041V18.7808H1130.42V21.9452C1130.42 25.4384 1129.14 28.3151 1125.46 28.3151C1121.75 28.3151 1120.47 25.4384 1120.47 21.9452V7.23288C1120.47 3.73973 1121.75 0.821917 1125.46 0.821917C1129.14 0.821917 1130.42 3.73973 1130.42 7.23288V9.49315H1131.3V7.27397C1131.3 3.28767 1129.7 0 1125.42 0Z" fill="black"/>
<path d="M1134.37 21.9041C1134.37 25.9315 1136.05 29.1781 1140.29 29.1781C1144.6 29.1781 1146.28 25.9315 1146.28 21.9041V7.27397C1146.28 3.24658 1144.6 0 1140.29 0C1136.05 0 1134.37 3.24658 1134.37 7.27397V21.9041ZM1135.25 7.23288C1135.25 3.69863 1136.57 0.821917 1140.29 0.821917C1144.04 0.821917 1145.4 3.69863 1145.4 7.23288V21.9452C1145.4 25.4795 1144.04 28.3562 1140.29 28.3562C1136.57 28.3562 1135.25 25.4795 1135.25 21.9452V7.23288Z" fill="black"/>
<path d="M1161.42 0C1157.19 0 1155.59 3.28767 1155.59 7.27397V21.9041C1155.59 25.8904 1157.19 29.1781 1161.42 29.1781C1165.69 29.1781 1167.29 25.8904 1167.29 21.9041V18.7808H1166.41V21.9452C1166.41 25.4384 1165.13 28.3151 1161.46 28.3151C1157.75 28.3151 1156.47 25.4384 1156.47 21.9452V7.23288C1156.47 3.73973 1157.75 0.821917 1161.46 0.821917C1165.13 0.821917 1166.41 3.73973 1166.41 7.23288V9.49315H1167.29V7.27397C1167.29 3.28767 1165.69 0 1161.42 0Z" fill="black"/>
<path d="M1181.39 1.06849V28.9726H1182.27V0.205479H1170.41V28.9726H1171.29V1.06849H1181.39Z" fill="black"/>
<path d="M1186.34 13.9726V1.06849H1196.13V0.205479H1185.46V28.9726H1196.13V28.1096H1186.34V14.7945H1194.57V13.9726H1186.34Z" fill="black"/>
<path d="M1214.24 32.8356V28.1096H1211.77V0.205479H1210.85V28.1096H1200.79V0.205479H1199.95V28.9726H1213.37V32.8356H1214.24Z" fill="black"/>
<path d="M1228.46 1.60274V28.9726H1229.3V0.205479H1228.11L1222.11 16.5616L1218.24 27.2466V0.205479H1217.4V28.9726H1218.48L1223.35 15.5753L1228.46 1.60274Z" fill="black"/>
<path d="M1244.75 22.1918L1246.39 28.9726H1247.27L1240.36 0.164384H1239.12L1232.38 28.9726H1233.17L1234.81 22.1918H1244.75ZM1239.72 1.23288L1244.59 21.3699H1234.97L1239.72 1.23288Z" fill="black"/>
<path d="M1263.57 1.06849V28.9726H1264.49V0.205479H1254.79L1253.95 22.0274C1253.87 24.9452 1253.83 28.1507 1250.2 28.1507V29.0137H1250.48C1254.47 28.8904 1254.67 25.4384 1254.83 22.0274L1255.63 1.06849H1263.57Z" fill="black"/>
<path d="M1278.73 1.60274V28.9726H1279.57V0.205479H1278.37L1272.38 16.5616L1268.51 27.2466V0.205479H1267.67V28.9726H1268.75L1273.62 15.5753L1278.73 1.60274Z" fill="black"/>
<path d="M1288.55 0C1284.32 0 1282.72 3.28767 1282.72 7.27397V21.9041C1282.72 25.8904 1284.32 29.1781 1288.55 29.1781C1292.83 29.1781 1294.42 25.8904 1294.42 21.9041V18.7808H1293.55V21.9452C1293.55 25.4384 1292.27 28.3151 1288.59 28.3151C1284.88 28.3151 1283.6 25.4384 1283.6 21.9452V7.23288C1283.6 3.73973 1284.88 0.821917 1288.59 0.821917C1292.27 0.821917 1293.55 3.73973 1293.55 7.23288V9.49315H1294.42V7.27397C1294.42 3.28767 1292.83 0 1288.55 0Z" fill="black"/>
<path d="M1304.37 28.9726V1.06849H1310.48V0.205479H1297.38V1.06849H1303.49V28.9726H1304.37Z" fill="black"/>
<path d="M1313.49 21.9041C1313.49 25.9315 1315.17 29.1781 1319.4 29.1781C1323.72 29.1781 1325.39 25.9315 1325.39 21.9041V7.27397C1325.39 3.24658 1323.72 0 1319.4 0C1315.17 0 1313.49 3.24658 1313.49 7.27397V21.9041ZM1314.37 7.23288C1314.37 3.69863 1315.69 0.821917 1319.4 0.821917C1323.16 0.821917 1324.51 3.69863 1324.51 7.23288V21.9452C1324.51 25.4795 1323.16 28.3562 1319.4 28.3562C1315.69 28.3562 1314.37 25.4795 1314.37 21.9452V7.23288Z" fill="black"/>
<path d="M1344.12 1.56164V28.9726H1345V0.205479H1343.64L1336.77 27.4932L1329.9 0.205479H1328.55V28.9726H1329.35V1.56164L1336.25 28.8904H1337.25L1344.12 1.56164Z" fill="black"/>
</svg>
