<svg width="297" height="33" viewBox="0 0 297 33" fill="none" xmlns="http://www.w3.org/2000/svg">
    <path d="M4.60349 5.88807V11.3729H4.97176V0.0806584H4.60349V5.56544H0.368278V0.0806584H0V11.3729H0.368278V5.88807H4.60349Z" fill="black"/>
    <path d="M6.67842 5.48478V0.419425H10.7797V0.0806584H6.31014V11.3729H10.7797V11.0341H6.67842V5.80741H10.1269V5.48478H6.67842Z" fill="black"/>
    <path d="M12.0641 8.5982C12.0641 10.1791 12.7672 11.4535 14.5416 11.4535C16.3495 11.4535 17.0526 10.1791 17.0526 8.5982V2.85531C17.0526 1.2744 16.3495 0 14.5416 0C12.7672 0 12.0641 1.2744 12.0641 2.85531V8.5982ZM12.4324 2.83918C12.4324 1.45185 12.9848 0.322634 14.5416 0.322634C16.1151 0.322634 16.6843 1.45185 16.6843 2.83918V8.61433C16.6843 10.0017 16.1151 11.1309 14.5416 11.1309C12.9848 11.1309 12.4324 10.0017 12.4324 8.61433V2.83918Z" fill="black"/>
    <path d="M18.7429 5.00083V0.419425H22.9446V0.0806584H18.3746V11.3729H20.8186C22.6265 11.3729 23.3464 10.3888 23.3464 8.72725V7.42058C23.3464 5.61383 22.4424 5.00083 20.6345 5.00083H18.7429ZM18.7429 11.0341V5.33959H20.6345C22.2081 5.33959 22.9781 5.79128 22.9781 7.40445V8.74338C22.9781 10.1952 22.3922 11.0341 20.8186 11.0341H18.7429Z" fill="black"/>
    <path d="M30.4102 11.3729H30.8119L27.9662 5.50091L30.6278 0.0806584H30.2595L27.7318 5.19441L25.2041 0.0806584H24.8191L27.4807 5.50091L24.6182 11.3729H25.0032L27.6983 5.82354L30.4102 11.3729Z" fill="black"/>
    <path d="M32.0898 8.5982C32.0898 10.1791 32.7929 11.4535 34.5673 11.4535C36.3752 11.4535 37.0783 10.1791 37.0783 8.5982V2.85531C37.0783 1.2744 36.3752 0 34.5673 0C32.7929 0 32.0898 1.2744 32.0898 2.85531V8.5982ZM32.4581 2.83918C32.4581 1.45185 33.0105 0.322634 34.5673 0.322634C36.1409 0.322634 36.71 1.45185 36.71 2.83918V8.61433C36.71 10.0017 36.1409 11.1309 34.5673 11.1309C33.0105 11.1309 32.4581 10.0017 32.4581 8.61433V2.83918Z" fill="black"/>
    <path d="M45.2972 12.9538V11.0341H44.2593V0.0806584H40.292L39.8065 9.09828C39.773 9.85647 39.7061 10.534 39.1871 11.0341H38.3501V12.9538H38.7184V11.3729H44.9289V12.9538H45.2972ZM40.6435 0.419425H43.891V11.0341H39.6056C40.0911 10.5179 40.1246 9.85647 40.1748 9.11441L40.6435 0.419425Z" fill="black"/>
    <path d="M51.2438 0.629137V11.3729H51.5953V0.0806584H51.0931L48.5821 6.50108L46.9584 10.6953V0.0806584H46.6068V11.3729H47.0588L49.1011 6.11392L51.2438 0.629137Z" fill="black"/>
    <path d="M59.4619 0.613004V11.3729H59.8301V0.0806584H59.261L56.3818 10.7921L53.5025 0.0806584H52.9333V11.3729H53.2681V0.613004L56.1641 11.3406H56.5826L59.4619 0.613004Z" fill="black"/>
    <path d="M61.1557 8.5982C61.1557 10.1791 61.8588 11.4535 63.6333 11.4535C65.4412 11.4535 66.1442 10.1791 66.1442 8.5982V2.85531C66.1442 1.2744 65.4412 0 63.6333 0C61.8588 0 61.1557 1.2744 61.1557 2.85531V8.5982ZM61.524 2.83918C61.524 1.45185 62.0764 0.322634 63.6333 0.322634C65.2068 0.322634 65.776 1.45185 65.776 2.83918V8.61433C65.776 10.0017 65.2068 11.1309 63.6333 11.1309C62.0764 11.1309 61.524 10.0017 61.524 8.61433V2.83918Z" fill="black"/>
    <path d="M74.669 0.419425V11.3729H75.0373V0.0806584H70.0655V11.3729H70.4338V0.419425H74.669Z" fill="black"/>
    <path d="M76.3757 0.0806584V11.3729H76.744V6.58173H78.4179C80.2761 6.58173 81.1131 5.72675 81.1131 3.93614V2.80692C81.1131 1.22601 80.4937 0.0806584 78.6858 0.0806584H76.3757ZM76.744 6.24297V0.419425H78.6858C80.2594 0.419425 80.7448 1.40346 80.7448 2.79078V3.95227C80.7448 5.54931 80.0584 6.24297 78.4179 6.24297H76.744Z" fill="black"/>
    <path d="M82.3748 8.5982C82.3748 10.1791 83.0779 11.4535 84.8523 11.4535C86.6603 11.4535 87.3633 10.1791 87.3633 8.5982V2.85531C87.3633 1.2744 86.6603 0 84.8523 0C83.0779 0 82.3748 1.2744 82.3748 2.85531V8.5982ZM82.7431 2.83918C82.7431 1.45185 83.2955 0.322634 84.8523 0.322634C86.4259 0.322634 86.9951 1.45185 86.9951 2.83918V8.61433C86.9951 10.0017 86.4259 11.1309 84.8523 11.1309C83.2955 11.1309 82.7431 10.0017 82.7431 8.61433V2.83918Z" fill="black"/>
    <path d="M93.7073 11.3729H94.1091L90.1752 5.42025L93.8078 0.0806584H93.406L89.0537 6.45268V0.0806584H88.6854V11.3729H89.0537V7.04955L89.9409 5.75902L93.7073 11.3729Z" fill="black"/>
    <path d="M95.3875 8.5982C95.3875 10.1791 96.0906 11.4535 97.865 11.4535C99.6729 11.4535 100.376 10.1791 100.376 8.5982V2.85531C100.376 1.2744 99.6729 0 97.865 0C96.0906 0 95.3875 1.2744 95.3875 2.85531V8.5982ZM95.7557 2.83918C95.7557 1.45185 96.3082 0.322634 97.865 0.322634C99.4385 0.322634 100.008 1.45185 100.008 2.83918V8.61433C100.008 10.0017 99.4385 11.1309 97.865 11.1309C96.3082 11.1309 95.7557 10.0017 95.7557 8.61433V2.83918Z" fill="black"/>
    <path d="M106.302 5.88807V11.3729H106.67V0.0806584H106.302V5.56544H102.066V0.0806584H101.698V11.3729H102.066V5.88807H106.302Z" fill="black"/>
    <path d="M110.435 0C108.661 0 107.991 1.29054 107.991 2.85531V8.5982C107.991 10.163 108.661 11.4535 110.435 11.4535C112.227 11.4535 112.896 10.163 112.896 8.5982V7.37219H112.528V8.61433C112.528 9.98552 111.992 11.1147 110.452 11.1147C108.895 11.1147 108.36 9.98552 108.36 8.61433V2.83918C108.36 1.46799 108.895 0.322634 110.452 0.322634C111.992 0.322634 112.528 1.46799 112.528 2.83918V3.72642H112.896V2.85531C112.896 1.29054 112.227 0 110.435 0Z" fill="black"/>
    <path d="M120.18 0.0806584H119.778L118.355 4.08132L117.234 7.25927L114.522 0.0806584H114.137L117.05 7.72709L116.38 9.5661C116.045 10.4856 115.71 11.0502 114.606 11.0502V11.3729C115.978 11.389 116.38 10.6792 116.748 9.5661L120.18 0.0806584Z" fill="black"/>
    <path d="M126.987 0.419425V11.3729H127.372V0.0806584H123.304L122.952 8.64659C122.919 9.79194 122.902 11.0502 121.379 11.0502V11.389H121.496C123.17 11.3406 123.254 9.98552 123.321 8.64659L123.656 0.419425H126.987Z" fill="black"/>
    <path d="M129.072 4.87177V0.0806584H128.704V11.3729H130.998C132.822 11.3729 133.442 10.2275 133.442 8.64659V7.51737C133.442 5.72675 132.605 4.87177 130.73 4.87177H129.072ZM129.072 11.0341V5.21054H130.73C132.37 5.21054 133.073 5.9042 133.073 7.50124V8.66272C133.073 10.0501 132.571 11.0341 130.998 11.0341H129.072Z" fill="black"/>
    <path d="M137.615 11.3729V0.419425H140.176V0.0806584H134.686V0.419425H137.247V11.3729H137.615Z" fill="black"/>
    <path d="M146.092 0.629137V11.3729H146.444V0.0806584H145.942L143.431 6.50108L141.807 10.6953V0.0806584H141.455V11.3729H141.907L143.949 6.11392L146.092 0.629137Z" fill="black"/>
    <path d="M147.782 0.0806584V11.3729H148.15V6.58173H149.824C151.682 6.58173 152.519 5.72675 152.519 3.93614V2.80692C152.519 1.22601 151.9 0.0806584 150.092 0.0806584H147.782ZM148.15 6.24297V0.419425H150.092C151.665 0.419425 152.151 1.40346 152.151 2.79078V3.95227C152.151 5.54931 151.464 6.24297 149.824 6.24297H148.15Z" fill="black"/>
    <path d="M153.781 8.5982C153.781 10.1791 154.484 11.4535 156.258 11.4535C158.066 11.4535 158.769 10.1791 158.769 8.5982V2.85531C158.769 1.2744 158.066 0 156.258 0C154.484 0 153.781 1.2744 153.781 2.85531V8.5982ZM154.149 2.83918C154.149 1.45185 154.702 0.322634 156.258 0.322634C157.832 0.322634 158.401 1.45185 158.401 2.83918V8.61433C158.401 10.0017 157.832 11.1309 156.258 11.1309C154.702 11.1309 154.149 10.0017 154.149 8.61433V2.83918Z" fill="black"/>
    <path d="M160.091 0.0806584V11.3729H162.452C164.226 11.3729 164.929 10.3727 164.929 8.77565V7.77548C164.929 6.46881 164.41 5.54931 163.021 5.35572C164.343 5.16214 164.695 4.40396 164.695 3.14568V2.41976C164.695 0.903375 164.142 0.0806584 162.435 0.0806584H160.091ZM160.46 5.21054V0.419425H162.435C163.908 0.419425 164.327 1.11309 164.327 2.43589V3.19408C164.327 4.83951 163.607 5.21054 161.983 5.21054H160.46ZM160.46 11.0341V5.53317H162.15C163.757 5.53317 164.561 6.13005 164.561 7.75935V8.77565C164.561 10.1952 163.992 11.0341 162.452 11.0341H160.46Z" fill="black"/>
    <path d="M171.377 8.71112L172.064 11.3729H172.432L169.536 0.064527H169.017L166.188 11.3729H166.523L167.209 8.71112H171.377ZM169.268 0.483952L171.31 8.38849H167.276L169.268 0.483952Z" fill="black"/>
    <path d="M176.588 11.3729V0.419425H179.149V0.0806584H173.658V0.419425H176.22V11.3729H176.588Z" fill="black"/>
    <path d="M180.796 4.87177V0.0806584H180.428V11.3729H182.721C184.546 11.3729 185.165 10.2275 185.165 8.64659V7.51737C185.165 5.72675 184.328 4.87177 182.453 4.87177H180.796ZM180.796 11.0341V5.21054H182.453C184.094 5.21054 184.797 5.9042 184.797 7.50124V8.66272C184.797 10.0501 184.295 11.0341 182.721 11.0341H180.796Z" fill="black"/>
    <path d="M188.904 0C187.129 0 186.46 1.29054 186.46 2.85531V8.5982C186.46 10.163 187.129 11.4535 188.904 11.4535C190.695 11.4535 191.364 10.163 191.364 8.5982V7.37219H190.996V8.61433C190.996 9.98552 190.46 11.1147 188.92 11.1147C187.364 11.1147 186.828 9.98552 186.828 8.61433V2.83918C186.828 1.46799 187.364 0.322634 188.92 0.322634C190.46 0.322634 190.996 1.46799 190.996 2.83918V3.72642H191.364V2.85531C191.364 1.29054 190.695 0 188.904 0Z" fill="black"/>
    <path d="M197.326 6.16231V11.3729H197.694V0.0806584H195.367C193.626 0.0806584 192.957 1.06469 192.957 2.61334V3.62963C192.957 5.01696 193.526 5.77515 194.815 6.00099C193.509 6.19457 192.957 7.01729 192.957 8.25943V10.0339C192.957 10.4695 192.906 11.018 192.639 11.3729H193.04C193.275 11.018 193.325 10.5179 193.325 10.0339V8.25943C193.325 6.59787 194.363 6.16231 195.886 6.16231H197.326ZM197.326 0.419425V5.82354H195.886C194.262 5.82354 193.325 5.42025 193.325 3.67803V2.6456C193.325 1.2744 193.877 0.419425 195.384 0.419425H197.326Z" fill="black"/>
    <path d="M204.058 0C202.283 0 201.614 1.29054 201.614 2.85531V8.5982C201.614 10.163 202.283 11.4535 204.058 11.4535C205.849 11.4535 206.519 10.163 206.519 8.5982V7.37219H206.15V8.61433C206.15 9.98552 205.615 11.1147 204.075 11.1147C202.518 11.1147 201.982 9.98552 201.982 8.61433V2.83918C201.982 1.46799 202.518 0.322634 204.075 0.322634C205.615 0.322634 206.15 1.46799 206.15 2.83918V3.72642H206.519V2.85531C206.519 1.29054 205.849 0 204.058 0Z" fill="black"/>
    <path d="M207.81 8.5982C207.81 10.1791 208.513 11.4535 210.287 11.4535C212.095 11.4535 212.798 10.1791 212.798 8.5982V2.85531C212.798 1.2744 212.095 0 210.287 0C208.513 0 207.81 1.2744 207.81 2.85531V8.5982ZM208.178 2.83918C208.178 1.45185 208.73 0.322634 210.287 0.322634C211.861 0.322634 212.43 1.45185 212.43 2.83918V8.61433C212.43 10.0017 211.861 11.1309 210.287 11.1309C208.73 11.1309 208.178 10.0017 208.178 8.61433V2.83918Z" fill="black"/>
    <path d="M219.147 0C217.372 0 216.703 1.29054 216.703 2.85531V8.5982C216.703 10.163 217.372 11.4535 219.147 11.4535C220.938 11.4535 221.607 10.163 221.607 8.5982V7.37219H221.239V8.61433C221.239 9.98552 220.703 11.1147 219.163 11.1147C217.607 11.1147 217.071 9.98552 217.071 8.61433V2.83918C217.071 1.46799 217.607 0.322634 219.163 0.322634C220.703 0.322634 221.239 1.46799 221.239 2.83918V3.72642H221.607V2.85531C221.607 1.29054 220.938 0 219.147 0Z" fill="black"/>
    <path d="M227.518 0.419425V11.3729H227.887V0.0806584H222.915V11.3729H223.283V0.419425H227.518Z" fill="black"/>
    <path d="M229.593 5.48478V0.419425H233.695V0.0806584H229.225V11.3729H233.695V11.0341H229.593V5.80741H233.042V5.48478H229.593Z" fill="black"/>
    <path d="M241.29 12.8892V11.0341H240.252V0.0806584H239.867V11.0341H235.649V0.0806584H235.297V11.3729H240.922V12.8892H241.29Z" fill="black"/>
    <path d="M247.251 0.629137V11.3729H247.602V0.0806584H247.1L244.589 6.50108L242.965 10.6953V0.0806584H242.614V11.3729H243.066L245.108 6.11392L247.251 0.629137Z" fill="black"/>
    <path d="M254.079 8.71112L254.766 11.3729H255.134L252.238 0.064527H251.719L248.89 11.3729H249.225L249.911 8.71112H254.079ZM251.97 0.483952L254.013 8.38849H249.978L251.97 0.483952Z" fill="black"/>
    <path d="M261.968 0.419425V11.3729H262.353V0.0806584H258.286L257.934 8.64659C257.901 9.79194 257.884 11.0502 256.361 11.0502V11.389H256.478C258.152 11.3406 258.235 9.98552 258.302 8.64659L258.637 0.419425H261.968Z" fill="black"/>
    <path d="M268.323 0.629137V11.3729H268.674V0.0806584H268.172L265.661 6.50108L264.037 10.6953V0.0806584H263.686V11.3729H264.138L266.18 6.11392L268.323 0.629137Z" fill="black"/>
    <path d="M272.44 0C270.665 0 269.996 1.29054 269.996 2.85531V8.5982C269.996 10.163 270.665 11.4535 272.44 11.4535C274.231 11.4535 274.9 10.163 274.9 8.5982V7.37219H274.532V8.61433C274.532 9.98552 273.996 11.1147 272.456 11.1147C270.9 11.1147 270.364 9.98552 270.364 8.61433V2.83918C270.364 1.46799 270.9 0.322634 272.456 0.322634C273.996 0.322634 274.532 1.46799 274.532 2.83918V3.72642H274.9V2.85531C274.9 1.29054 274.231 0 272.44 0Z" fill="black"/>
    <path d="M279.071 11.3729V0.419425H281.632V0.0806584H276.141V0.419425H278.702V11.3729H279.071Z" fill="black"/>
    <path d="M282.894 8.5982C282.894 10.1791 283.597 11.4535 285.371 11.4535C287.179 11.4535 287.882 10.1791 287.882 8.5982V2.85531C287.882 1.2744 287.179 0 285.371 0C283.597 0 282.894 1.2744 282.894 2.85531V8.5982ZM283.262 2.83918C283.262 1.45185 283.814 0.322634 285.371 0.322634C286.945 0.322634 287.514 1.45185 287.514 2.83918V8.61433C287.514 10.0017 286.945 11.1309 285.371 11.1309C283.814 11.1309 283.262 10.0017 283.262 8.61433V2.83918Z" fill="black"/>
    <path d="M295.733 0.613004V11.3729H296.101V0.0806584H295.532L292.653 10.7921L289.773 0.0806584H289.204V11.3729H289.539V0.613004L292.435 11.3406H292.854L295.733 0.613004Z" fill="black"/>
    <path d="M5.19976 17.6998V30.4405H5.59397V17.0494H5.03082L2.21506 24.6632L0.394206 29.637V17.0494H0V30.4405H0.506836L2.79698 24.2041L5.19976 17.6998Z" fill="black"/>
    <path d="M14.4154 17.6807V30.4405H14.8283V17.0494H14.1901L10.9614 29.7518L7.73262 17.0494H7.09439V30.4405H7.46982V17.6807L10.7173 30.4022H11.1866L14.4154 17.6807Z" fill="black"/>
    <path d="M16.7466 23.458V17.4511H21.3456V17.0494H16.3336V30.4405H21.3456V30.0388H16.7466V23.8406H20.6135V23.458H16.7466Z" fill="black"/>
    <path d="M28.5488 16.9537C26.5403 16.9537 25.7706 18.465 25.7706 20.3398V23.5536H23.2177V17.0494H22.8047V30.4405H23.2177V23.9362H25.7706V27.1501C25.7706 29.0249 26.5403 30.5361 28.5488 30.5361C30.5574 30.5361 31.3646 29.0249 31.3646 27.1501V20.3398C31.3646 18.465 30.5574 16.9537 28.5488 16.9537ZM28.5488 17.3363C30.2946 17.3363 30.9516 18.6755 30.9516 20.3206V27.1692C30.9516 28.8144 30.2946 30.1535 28.5488 30.1535C26.8031 30.1535 26.1836 28.8144 26.1836 27.1692V20.3206C26.1836 18.6755 26.8031 17.3363 28.5488 17.3363Z" fill="black"/>
    <path d="M36.0605 30.4405V17.4511H38.9325V17.0494H32.7754V17.4511H35.6475V30.4405H36.0605Z" fill="black"/>
    <path d="M43.0884 16.9537C41.0986 16.9537 40.3477 18.4841 40.3477 20.3398V27.1501C40.3477 29.0057 41.0986 30.5361 43.0884 30.5361C45.097 30.5361 45.8478 29.0057 45.8478 27.1501V25.6962H45.4349V27.1692C45.4349 28.7953 44.8342 30.1344 43.1072 30.1344C41.3614 30.1344 40.7607 28.7953 40.7607 27.1692V20.3206C40.7607 18.6946 41.3614 17.3363 43.1072 17.3363C44.8342 17.3363 45.4349 18.6946 45.4349 20.3206V21.3728H45.8478V20.3398C45.8478 18.4841 45.097 16.9537 43.0884 16.9537Z" fill="black"/>
    <path d="M52.5328 24.2615V30.4405H52.9458V17.0494H50.3365C48.3842 17.0494 47.6334 18.2163 47.6334 20.0528V21.258C47.6334 22.9032 48.2716 23.8023 49.717 24.0702C48.2528 24.2997 47.6334 25.2754 47.6334 26.7484V28.8527C47.6334 29.3692 47.577 30.0196 47.2767 30.4405H47.7272C47.99 30.0196 48.0463 29.4266 48.0463 28.8527V26.7484C48.0463 24.778 49.2102 24.2615 50.9184 24.2615H52.5328ZM52.5328 17.4511V23.8597H50.9184C49.0976 23.8597 48.0463 23.3815 48.0463 21.3154V20.0911C48.0463 18.465 48.6658 17.4511 50.3553 17.4511H52.5328Z" fill="black"/>
    <path d="M62.5223 17.4511V30.4405H62.9352V17.0494H57.36V30.4405H57.773V17.4511H62.5223Z" fill="black"/>
    <path d="M64.4361 17.0494V30.4405H64.8491V24.7588H66.7262C68.8099 24.7588 69.7485 23.7449 69.7485 21.6215V20.2824C69.7485 18.4076 69.0539 17.0494 67.0266 17.0494H64.4361ZM64.8491 24.3571V17.4511H67.0266C68.7911 17.4511 69.3355 18.6181 69.3355 20.2633V21.6406C69.3355 23.5345 68.5659 24.3571 66.7262 24.3571H64.8491Z" fill="black"/>
    <path d="M71.1634 27.1501C71.1634 29.0249 71.9518 30.5361 73.9416 30.5361C75.969 30.5361 76.7574 29.0249 76.7574 27.1501V20.3398C76.7574 18.465 75.969 16.9537 73.9416 16.9537C71.9518 16.9537 71.1634 18.465 71.1634 20.3398V27.1501ZM71.5764 20.3206C71.5764 18.6755 72.1958 17.3363 73.9416 17.3363C75.7062 17.3363 76.3444 18.6755 76.3444 20.3206V27.1692C76.3444 28.8144 75.7062 30.1535 73.9416 30.1535C72.1958 30.1535 71.5764 28.8144 71.5764 27.1692V20.3206Z" fill="black"/>
    <path d="M81.4499 30.4405V17.4511H84.3219V17.0494H78.1648V17.4511H81.0369V30.4405H81.4499Z" fill="black"/>
    <path d="M90.9557 17.6998V30.4405H91.3499V17.0494H90.7867L87.971 24.6632L86.1501 29.637V17.0494H85.7559V30.4405H86.2628L88.5529 24.2041L90.9557 17.6998Z" fill="black"/>
    <path d="M92.8503 17.0494V30.4405H95.4971C97.4869 30.4405 98.2753 29.2544 98.2753 27.3605V26.1745C98.2753 24.6249 97.6934 23.5345 96.1354 23.3049C97.6183 23.0754 98.0125 22.1763 98.0125 20.6841V19.8233C98.0125 18.025 97.3931 17.0494 95.4783 17.0494H92.8503ZM93.2633 23.1328V17.4511H95.4783C97.1303 17.4511 97.5995 18.2737 97.5995 19.8424V20.7415C97.5995 22.6928 96.7924 23.1328 94.9715 23.1328H93.2633ZM93.2633 30.0388V23.5154H95.1592C96.9613 23.5154 97.8624 24.2232 97.8624 26.1553V27.3605C97.8624 29.044 97.2241 30.0388 95.4971 30.0388H93.2633Z" fill="black"/>
    <path d="M99.7243 27.1501C99.7243 29.0249 100.513 30.5361 102.502 30.5361C104.53 30.5361 105.318 29.0249 105.318 27.1501V20.3398C105.318 18.465 104.53 16.9537 102.502 16.9537C100.513 16.9537 99.7243 18.465 99.7243 20.3398V27.1501ZM100.137 20.3206C100.137 18.6755 100.757 17.3363 102.502 17.3363C104.267 17.3363 104.905 18.6755 104.905 20.3206V27.1692C104.905 28.8144 104.267 30.1535 102.502 30.1535C100.757 30.1535 100.137 28.8144 100.137 27.1692V20.3206Z" fill="black"/>
    <path d="M111.963 17.4511V30.4405H112.376V17.0494H106.801V30.4405H107.214V17.4511H111.963Z" fill="black"/>
    <path d="M113.858 27.1501C113.858 29.0249 114.646 30.5361 116.636 30.5361C118.664 30.5361 119.452 29.0249 119.452 27.1501V20.3398C119.452 18.465 118.664 16.9537 116.636 16.9537C114.646 16.9537 113.858 18.465 113.858 20.3398V27.1501ZM114.271 20.3206C114.271 18.6755 114.89 17.3363 116.636 17.3363C118.401 17.3363 119.039 18.6755 119.039 20.3206V27.1692C119.039 28.8144 118.401 30.1535 116.636 30.1535C114.89 30.1535 114.271 28.8144 114.271 27.1692V20.3206Z" fill="black"/>
    <path d="M126.566 30.4405H127.017L122.605 23.3815L126.679 17.0494H126.228L121.348 24.6058V17.0494H120.935V30.4405H121.348V25.3136L122.342 23.7832L126.566 30.4405Z" fill="black"/>
    <path d="M134.232 27.284L135.001 30.4405H135.414L132.167 17.0303H131.585L128.413 30.4405H128.788L129.558 27.284H134.232ZM131.867 17.5276L134.157 26.9014H129.633L131.867 17.5276Z" fill="black"/>
    <path d="M139.606 16.9537C137.597 16.9537 136.865 18.465 136.865 20.3206V20.8945H137.24V20.3206C137.24 18.6755 137.841 17.3363 139.587 17.3363C141.333 17.3363 141.933 18.6755 141.933 20.3398V20.7415C141.933 22.0615 140.995 23.2667 139.681 23.2667H138.817V23.6493H139.662C141.051 23.6493 141.933 24.7015 141.933 26.1171V27.1501C141.933 28.7953 141.333 30.1535 139.587 30.1535C137.841 30.1535 137.259 28.7953 137.259 27.1692V26.1745H136.846V27.1501C136.846 29.0249 137.597 30.5361 139.606 30.5361C141.614 30.5361 142.346 29.0249 142.346 27.1501V26.1171C142.346 24.8354 141.708 23.7449 140.431 23.4389C141.633 23.0754 142.346 21.9658 142.346 20.6841V20.3398C142.346 18.465 141.614 16.9537 139.606 16.9537Z" fill="black"/>
    <path d="M149.594 27.284L150.363 30.4405H150.776L147.529 17.0303H146.947L143.775 30.4405H144.15L144.92 27.284H149.594ZM147.229 17.5276L149.519 26.9014H144.995L147.229 17.5276Z" fill="black"/>
    <path d="M157.389 23.9362V30.4405H157.802V17.0494H157.389V23.5536H152.64V17.0494H152.227V30.4405H152.64V23.9362H157.389Z" fill="black"/>
    <path d="M164.503 17.6998V30.4405H164.897V17.0494H164.334L161.518 24.6632L159.697 29.637V17.0494H159.303V30.4405H159.81L162.1 24.2041L164.503 17.6998Z" fill="black"/>
    <path d="M171.616 24.2615V30.4405H172.029V17.0494H169.42C167.467 17.0494 166.716 18.2163 166.716 20.0528V21.258C166.716 22.9032 167.355 23.8023 168.8 24.0702C167.336 24.2997 166.716 25.2754 166.716 26.7484V28.8527C166.716 29.3692 166.66 30.0196 166.36 30.4405H166.81C167.073 30.0196 167.129 29.4266 167.129 28.8527V26.7484C167.129 24.778 168.293 24.2615 170.001 24.2615H171.616ZM171.616 17.4511V23.8597H170.001C168.181 23.8597 167.129 23.3815 167.129 21.3154V20.0911C167.129 18.465 167.749 17.4511 169.438 17.4511H171.616Z" fill="black"/>
    <path d="M173.528 28.891V30.4405H173.941V28.891H173.528Z" fill="black"/>
    <path d="M183.512 17.4511V30.4405H183.925V17.0494H178.35V30.4405H178.763V17.4511H183.512Z" fill="black"/>
    <path d="M185.839 23.458V17.4511H190.438V17.0494H185.426V30.4405H190.438V30.0388H185.839V23.8406H189.706V23.458H185.839Z" fill="black"/>
    <path d="M191.897 17.0494V30.4405H192.31V24.7588H194.187C196.271 24.7588 197.209 23.7449 197.209 21.6215V20.2824C197.209 18.4076 196.515 17.0494 194.487 17.0494H191.897ZM192.31 24.3571V17.4511H194.487C196.252 17.4511 196.796 18.6181 196.796 20.2633V21.6406C196.796 23.5345 196.027 24.3571 194.187 24.3571H192.31Z" fill="black"/>
    <path d="M199.056 23.458V17.4511H203.655V17.0494H198.643V30.4405H203.655V30.0388H199.056V23.8406H202.923V23.458H199.056Z" fill="black"/>
    <path d="M212.848 32.3153V30.0388H211.684V17.0494H207.235L206.691 27.7431C206.653 28.6423 206.578 29.4457 205.996 30.0388H205.058V32.3153H205.471V30.4405H212.435V32.3153H212.848ZM207.629 17.4511H211.271V30.0388H206.465C207.01 29.4266 207.047 28.6423 207.104 27.7623L207.629 17.4511Z" fill="black"/>
    <path d="M222.393 17.4511V30.4405H222.806V17.0494H217.231V30.4405H217.644V17.4511H222.393Z" fill="black"/>
    <path d="M224.307 17.0494V30.4405H224.72V24.7588H226.597C228.681 24.7588 229.62 23.7449 229.62 21.6215V20.2824C229.62 18.4076 228.925 17.0494 226.898 17.0494H224.307ZM224.72 24.3571V17.4511H226.898C228.662 17.4511 229.207 18.6181 229.207 20.2633V21.6406C229.207 23.5345 228.437 24.3571 226.597 24.3571H224.72Z" fill="black"/>
    <path d="M236.253 17.6998V30.4405H236.647V17.0494H236.084L233.268 24.6632L231.448 29.637V17.0494H231.053V30.4405H231.56L233.85 24.2041L236.253 17.6998Z" fill="black"/>
    <path d="M245.469 17.6807V30.4405H245.882V17.0494H245.243L242.015 29.7518L238.786 17.0494H238.148V30.4405H238.523V17.6807L241.771 30.4022H242.24L245.469 17.6807Z" fill="black"/>
    <path d="M247.8 23.458V17.4511H252.399V17.0494H247.387V30.4405H252.399V30.0388H247.8V23.8406H251.667V23.458H247.8Z" fill="black"/>
    <path d="M259.02 23.9362V30.4405H259.433V17.0494H259.02V23.5536H254.271V17.0494H253.858V30.4405H254.271V23.9362H259.02Z" fill="black"/>
    <path d="M261.347 23.458V17.4511H265.946V17.0494H260.934V30.4405H265.946V30.0388H261.347V23.8406H265.214V23.458H261.347Z" fill="black"/>
    <path d="M272.567 23.9362V30.4405H272.98V17.0494H272.567V23.5536H267.818V17.0494H267.405V30.4405H267.818V23.9362H272.567Z" fill="black"/>
    <path d="M279.681 17.6998V30.4405H280.075V17.0494H279.512L276.696 24.6632L274.875 29.637V17.0494H274.481V30.4405H274.988L277.278 24.2041L279.681 17.6998Z" fill="black"/>
    <path d="M281.989 23.458V17.4511H286.588V17.0494H281.576V30.4405H286.588V30.0388H281.989V23.8406H285.856V23.458H281.989Z" fill="black"/>
    <path d="M295.368 17.6807V30.4405H295.781V17.0494H295.142L291.914 29.7518L288.685 17.0494H288.047V30.4405H288.422V17.6807L291.67 30.4022H292.139L295.368 17.6807Z" fill="black"/>
</svg>
