<svg width="217" height="35" viewBox="0 0 217 35" fill="none" xmlns="http://www.w3.org/2000/svg">
<path d="M28.5411 34.0686C26.122 34.0686 23.9728 33.6839 22.0833 32.9353C20.1937 32.1763 18.574 31.1365 17.2036 29.8056C15.8435 28.4852 14.7741 26.9047 14.0058 25.0852C13.2375 23.2656 12.7911 21.2693 12.6561 19.0962H5.12888V33.3928H0V1.66987H5.12888V14.6148H12.8534C13.1129 12.6497 13.6528 10.8301 14.473 9.15611C15.2828 7.4821 16.3522 6.03684 17.6708 4.83072C18.9893 3.62461 20.5571 2.67843 22.3843 1.98179C24.2116 1.28516 26.2673 0.931641 28.5515 0.931641C31.0951 0.931641 33.3481 1.35794 35.3104 2.22094C37.2623 3.08393 38.9234 4.24846 40.2835 5.74571C41.6436 7.23256 42.6818 9.00014 43.3775 11.0277C44.0835 13.0552 44.4365 15.2283 44.4365 17.5573C44.4365 19.8864 44.0835 22.0595 43.3775 24.0662C42.6715 26.0729 41.6436 27.8197 40.2835 29.317C38.9234 30.8038 37.2623 31.9683 35.3104 32.8105C33.3585 33.6423 31.1055 34.0686 28.5515 34.0686H28.5411ZM28.5411 29.5249C30.005 29.5249 31.3962 29.265 32.7148 28.7243C34.0333 28.194 35.165 27.4246 36.1098 26.4264C37.0546 25.4283 37.8021 24.1702 38.3732 22.6833C38.9338 21.1861 39.2245 19.4809 39.2245 17.5573C39.2245 15.6338 38.9442 13.9286 38.3732 12.4313C37.8125 10.9445 37.0546 9.68638 36.1098 8.65702C35.165 7.62767 34.0333 6.85825 32.7148 6.31757C31.3962 5.7873 30.005 5.51696 28.5411 5.51696C27.0772 5.51696 25.634 5.7873 24.3362 6.31757C23.0384 6.84785 21.9171 7.62767 20.9723 8.65702C20.0276 9.67598 19.28 10.9341 18.709 12.4313C18.1483 13.9286 17.8576 15.6338 17.8576 17.5573C17.8576 21.4044 18.844 24.3573 20.827 26.4264C22.81 28.4956 25.3745 29.5249 28.5307 29.5249H28.5411Z" fill="url(#paint0_linear_9_1676)"/>
<path d="M45.8066 1.66992H50.9978V14.3133H66.9866V1.66992H72.1674V33.3929H66.9866V18.7947H50.9978V33.3929H45.8066V1.66992Z" fill="url(#paint1_linear_9_1676)"/>
<path d="M96.0571 33.3929V28.3604H95.9325C94.832 30.3256 93.4304 31.7708 91.7277 32.6858C90.025 33.6008 88.0108 34.0687 85.6851 34.0687C83.6087 34.0687 81.8748 33.788 80.494 33.2369C79.1131 32.6858 77.9918 31.8956 77.1405 30.8766C76.2891 29.8577 75.6869 28.6412 75.3443 27.2271C75.0017 25.813 74.8252 24.2534 74.8252 22.5378V1.66992H80.0164V23.1513C80.0164 25.106 80.5874 26.6656 81.7191 27.8094C82.8611 28.9531 84.4289 29.525 86.4223 29.525C88.0108 29.525 89.3812 29.2858 90.5441 28.7867C91.7069 28.2981 92.6621 27.6014 93.4407 26.6968C94.209 25.8026 94.7905 24.7421 95.1746 23.536C95.5587 22.3299 95.756 21.0094 95.756 19.5745V1.66992H100.947V33.3929H96.0571Z" fill="url(#paint2_linear_9_1676)"/>
<path d="M103.585 1.66992H118.172C119.553 1.66992 120.882 1.7739 122.169 1.98185C123.446 2.1794 124.599 2.56411 125.616 3.11518C126.634 3.66625 127.454 4.45647 128.056 5.47543C128.669 6.49439 128.97 7.80448 128.97 9.3953C128.97 11.1109 128.565 12.5042 127.755 13.5647C126.945 14.6253 125.803 15.5091 124.339 16.2057V16.2681C126.167 16.632 127.62 17.495 128.71 18.8467C129.79 20.1984 130.33 21.9348 130.33 24.0559C130.33 25.4075 130.091 26.6552 129.624 27.799C129.157 28.9427 128.503 29.9201 127.641 30.7415C126.79 31.5629 125.772 32.2075 124.588 32.6754C123.405 33.1537 122.128 33.3825 120.737 33.3825H103.595V1.66992H103.585ZM117.622 14.6773C119.864 14.6773 121.422 14.2718 122.294 13.4503C123.166 12.6289 123.602 11.5476 123.602 10.1959C123.602 8.84423 123.176 7.87726 122.325 7.15983C121.474 6.4424 119.906 6.08888 117.622 6.08888H108.714V14.6773H117.622ZM119.761 28.9739C121.474 28.9739 122.761 28.4748 123.633 27.4663C124.505 26.4681 124.941 25.21 124.941 23.6919C124.941 22.2675 124.474 21.1133 123.54 20.2607C122.605 19.3978 121.038 18.9715 118.837 18.9715H108.703V28.9739H119.75H119.761Z" fill="url(#paint3_linear_9_1676)"/>
<path d="M152.766 33.3929V28.3604H152.641C151.541 30.3256 150.139 31.7708 148.437 32.6858C146.724 33.6112 144.709 34.0687 142.394 34.0687C140.318 34.0687 138.594 33.788 137.203 33.2369C135.822 32.6858 134.701 31.8956 133.849 30.8766C132.988 29.8577 132.396 28.6412 132.053 27.2271C131.7 25.813 131.534 24.2534 131.534 22.5378V1.66992H136.715V23.1513C136.715 25.106 137.286 26.6656 138.418 27.8094C139.56 28.9531 141.127 29.525 143.121 29.525C144.709 29.525 146.08 29.2858 147.243 28.7867C148.406 28.2981 149.371 27.6014 150.139 26.6968C150.918 25.8026 151.489 24.7421 151.884 23.536C152.268 22.3299 152.465 21.0094 152.465 19.5849V1.66992H157.656V33.3929H152.776H152.766Z" fill="url(#paint4_linear_9_1676)"/>
<path d="M165.319 1.66972V6.33822H165.443C167.8 2.74067 171.195 0.941895 175.639 0.941895C177.59 0.941895 179.366 1.3474 180.944 2.16881C182.532 2.99021 183.654 4.38348 184.297 6.33822C185.356 4.62263 186.748 3.29174 188.482 2.35596C190.215 1.42018 192.115 0.941895 194.192 0.941895C195.78 0.941895 197.213 1.11865 198.49 1.46177C199.778 1.80489 200.868 2.34556 201.792 3.08379C202.705 3.82202 203.422 4.76819 203.931 5.93272C204.439 7.09725 204.699 8.50092 204.699 10.1333V33.3823H199.508V12.5976C199.508 11.6098 199.425 10.6948 199.258 9.8318C199.092 8.96881 198.791 8.23058 198.345 7.58593C197.898 6.95168 197.275 6.4526 196.486 6.08868C195.697 5.72477 194.669 5.53761 193.403 5.53761C190.838 5.53761 188.824 6.27584 187.36 7.75229C185.896 9.22874 185.159 11.1835 185.159 13.6373V33.3927H179.968V12.5976C179.968 11.5786 179.875 10.6324 179.698 9.76942C179.522 8.91682 179.2 8.16819 178.753 7.53394C178.307 6.89969 177.705 6.41101 176.957 6.05749C176.199 5.71437 175.244 5.53761 174.06 5.53761C172.555 5.53761 171.257 5.84954 170.188 6.463C169.108 7.07645 168.236 7.81468 167.561 8.66728C166.886 9.51988 166.398 10.4141 166.097 11.3291C165.786 12.2544 165.64 13.0239 165.64 13.6269V33.3823H160.449V1.66972H165.339H165.319Z" fill="url(#paint5_linear_9_1676)"/>
<path d="M214.373 6.51857C214.373 6.51857 214.263 6.76705 214.097 6.76705C213.987 6.76705 213.904 6.71183 213.848 6.65661L212.909 5.27617H212.108V6.49096C212.108 6.65661 211.997 6.76705 211.831 6.76705C211.666 6.76705 211.527 6.629 211.527 6.49096V3.26073C211.527 3.06747 211.638 2.95703 211.831 2.95703H213.13C213.848 2.95703 214.346 3.42638 214.346 4.1166C214.346 4.7516 213.959 5.11052 213.489 5.22095L214.291 6.35291C214.291 6.35291 214.346 6.43574 214.346 6.51857H214.373ZM212.108 4.77921H213.075C213.489 4.77921 213.793 4.50312 213.793 4.1166C213.793 3.73008 213.489 3.45399 213.075 3.45399H212.108V4.77921Z" fill="#7ECEF5"/>
<path d="M212.881 8.83748C210.726 8.83748 208.957 7.07052 208.957 4.91703C208.957 2.76355 210.726 0.996582 212.881 0.996582C215.036 0.996582 216.805 2.76355 216.805 4.91703C216.805 7.07052 215.036 8.83748 212.881 8.83748ZM212.881 1.76963C211.14 1.76963 209.703 3.17768 209.703 4.94464C209.703 6.7116 211.112 8.09204 212.881 8.09204C214.649 8.09204 216.031 6.684 216.031 4.94464C216.031 3.20529 214.622 1.76963 212.881 1.76963Z" fill="#7ECEF5"/>
<defs>
<linearGradient id="paint0_linear_9_1676" x1="211.146" y1="69.6595" x2="-3.14628" y2="12.3178" gradientUnits="userSpaceOnUse">
<stop stop-color="#009FE3"/>
<stop offset="0.03" stop-color="#05A0D8"/>
<stop offset="0.08" stop-color="#14A2BC"/>
<stop offset="0.15" stop-color="#2BA78F"/>
<stop offset="0.23" stop-color="#4CAD51"/>
<stop offset="0.27" stop-color="#5EB130"/>
<stop offset="0.39" stop-color="#C2C412"/>
<stop offset="0.48" stop-color="#FFD000"/>
<stop offset="0.51" stop-color="#F9B100"/>
<stop offset="0.55" stop-color="#F39400"/>
<stop offset="0.59" stop-color="#F08300"/>
<stop offset="0.61" stop-color="#EF7D00"/>
<stop offset="0.62" stop-color="#ED6E02"/>
<stop offset="0.66" stop-color="#E94908"/>
<stop offset="0.7" stop-color="#E62B0C"/>
<stop offset="0.73" stop-color="#E41610"/>
<stop offset="0.77" stop-color="#E30A12"/>
<stop offset="0.8" stop-color="#E30613"/>
<stop offset="1" stop-color="#D10174"/>
</linearGradient>
<linearGradient id="paint1_linear_9_1676" x1="213.44" y1="58.9812" x2="-3.012" y2="1.06923" gradientUnits="userSpaceOnUse">
<stop stop-color="#009FE3"/>
<stop offset="0.03" stop-color="#05A0D8"/>
<stop offset="0.08" stop-color="#14A2BC"/>
<stop offset="0.15" stop-color="#2BA78F"/>
<stop offset="0.23" stop-color="#4CAD51"/>
<stop offset="0.27" stop-color="#5EB130"/>
<stop offset="0.39" stop-color="#C2C412"/>
<stop offset="0.48" stop-color="#FFD000"/>
<stop offset="0.51" stop-color="#F9B100"/>
<stop offset="0.55" stop-color="#F39400"/>
<stop offset="0.59" stop-color="#F08300"/>
<stop offset="0.61" stop-color="#EF7D00"/>
<stop offset="0.62" stop-color="#ED6E02"/>
<stop offset="0.66" stop-color="#E94908"/>
<stop offset="0.7" stop-color="#E62B0C"/>
<stop offset="0.73" stop-color="#E41610"/>
<stop offset="0.77" stop-color="#E30A12"/>
<stop offset="0.8" stop-color="#E30613"/>
<stop offset="1" stop-color="#D10174"/>
</linearGradient>
<linearGradient id="paint2_linear_9_1676" x1="213.222" y1="50.3617" x2="-3.2717" y2="-7.56071" gradientUnits="userSpaceOnUse">
<stop stop-color="#009FE3"/>
<stop offset="0.03" stop-color="#05A0D8"/>
<stop offset="0.08" stop-color="#14A2BC"/>
<stop offset="0.15" stop-color="#2BA78F"/>
<stop offset="0.23" stop-color="#4CAD51"/>
<stop offset="0.27" stop-color="#5EB130"/>
<stop offset="0.39" stop-color="#C2C412"/>
<stop offset="0.48" stop-color="#FFD000"/>
<stop offset="0.51" stop-color="#F9B100"/>
<stop offset="0.55" stop-color="#F39400"/>
<stop offset="0.59" stop-color="#F08300"/>
<stop offset="0.61" stop-color="#EF7D00"/>
<stop offset="0.62" stop-color="#ED6E02"/>
<stop offset="0.66" stop-color="#E94908"/>
<stop offset="0.7" stop-color="#E62B0C"/>
<stop offset="0.73" stop-color="#E41610"/>
<stop offset="0.77" stop-color="#E30A12"/>
<stop offset="0.8" stop-color="#E30613"/>
<stop offset="1" stop-color="#D10174"/>
</linearGradient>
<linearGradient id="paint3_linear_9_1676" x1="211.894" y1="44.2271" x2="-3.84194" y2="-13.4982" gradientUnits="userSpaceOnUse">
<stop stop-color="#009FE3"/>
<stop offset="0.03" stop-color="#05A0D8"/>
<stop offset="0.08" stop-color="#14A2BC"/>
<stop offset="0.15" stop-color="#2BA78F"/>
<stop offset="0.23" stop-color="#4CAD51"/>
<stop offset="0.27" stop-color="#5EB130"/>
<stop offset="0.39" stop-color="#C2C412"/>
<stop offset="0.48" stop-color="#FFD000"/>
<stop offset="0.51" stop-color="#F9B100"/>
<stop offset="0.55" stop-color="#F39400"/>
<stop offset="0.59" stop-color="#F08300"/>
<stop offset="0.61" stop-color="#EF7D00"/>
<stop offset="0.62" stop-color="#ED6E02"/>
<stop offset="0.66" stop-color="#E94908"/>
<stop offset="0.7" stop-color="#E62B0C"/>
<stop offset="0.73" stop-color="#E41610"/>
<stop offset="0.77" stop-color="#E30A12"/>
<stop offset="0.8" stop-color="#E30613"/>
<stop offset="1" stop-color="#D10174"/>
</linearGradient>
<linearGradient id="paint4_linear_9_1676" x1="212.257" y1="34.8901" x2="-4.20551" y2="-23.0219" gradientUnits="userSpaceOnUse">
<stop stop-color="#009FE3"/>
<stop offset="0.03" stop-color="#05A0D8"/>
<stop offset="0.08" stop-color="#14A2BC"/>
<stop offset="0.15" stop-color="#2BA78F"/>
<stop offset="0.23" stop-color="#4CAD51"/>
<stop offset="0.27" stop-color="#5EB130"/>
<stop offset="0.39" stop-color="#C2C412"/>
<stop offset="0.48" stop-color="#FFD000"/>
<stop offset="0.51" stop-color="#F9B100"/>
<stop offset="0.55" stop-color="#F39400"/>
<stop offset="0.59" stop-color="#F08300"/>
<stop offset="0.61" stop-color="#EF7D00"/>
<stop offset="0.62" stop-color="#ED6E02"/>
<stop offset="0.66" stop-color="#E94908"/>
<stop offset="0.7" stop-color="#E62B0C"/>
<stop offset="0.73" stop-color="#E41610"/>
<stop offset="0.77" stop-color="#E30A12"/>
<stop offset="0.8" stop-color="#E30613"/>
<stop offset="1" stop-color="#D10174"/>
</linearGradient>
<linearGradient id="paint5_linear_9_1676" x1="211.686" y1="26.0832" x2="-3.40564" y2="-31.4659" gradientUnits="userSpaceOnUse">
<stop stop-color="#009FE3"/>
<stop offset="0.03" stop-color="#05A0D8"/>
<stop offset="0.08" stop-color="#14A2BC"/>
<stop offset="0.15" stop-color="#2BA78F"/>
<stop offset="0.23" stop-color="#4CAD51"/>
<stop offset="0.27" stop-color="#5EB130"/>
<stop offset="0.39" stop-color="#C2C412"/>
<stop offset="0.48" stop-color="#FFD000"/>
<stop offset="0.51" stop-color="#F9B100"/>
<stop offset="0.55" stop-color="#F39400"/>
<stop offset="0.59" stop-color="#F08300"/>
<stop offset="0.61" stop-color="#EF7D00"/>
<stop offset="0.62" stop-color="#ED6E02"/>
<stop offset="0.66" stop-color="#E94908"/>
<stop offset="0.7" stop-color="#E62B0C"/>
<stop offset="0.73" stop-color="#E41610"/>
<stop offset="0.77" stop-color="#E30A12"/>
<stop offset="0.8" stop-color="#E30613"/>
<stop offset="1" stop-color="#D10174"/>
</linearGradient>
</defs>
</svg>
