<svg width="28" height="40" viewBox="0 0 28 40" fill="none" xmlns="http://www.w3.org/2000/svg">
    <path d="M26.7041 22.544L15.2989 0.755036C15.055 0.287364 14.5559 0 14.0015 0C13.447 0 12.948 0.287364 12.7041 0.755036L1.29891 22.544C-0.525247 26.0262 -0.419901 29.9704 1.58168 33.3624C4.00465 37.4588 8.76188 40 14.0015 40C19.2411 40 23.9983 37.4532 26.4157 33.3624C28.4229 29.9704 28.5227 26.0262 26.6985 22.544H26.7041ZM11.8058 34.957C8.96703 34.8049 6.37772 33.5766 5.06366 31.3509C3.97693 29.5084 3.91594 27.3672 4.90842 25.474L11.1017 13.6414C11.2348 13.3878 11.5064 13.23 11.8058 13.23C12.1052 13.23 12.3769 13.3878 12.51 13.6414L10.0704 23.9245C9.26089 27.3447 11.8502 30.6128 15.31 30.5395C17.3837 30.4944 17.0676 35.2331 11.8058 34.9514V34.957Z" fill="#009FE3"/>
</svg>
