<svg width="473" height="473" viewBox="0 0 473 473" fill="none" xmlns="http://www.w3.org/2000/svg">
    <g clip-path="url(#clip0_174_1165)">
        <path d="M174.734 75.9259C173.695 79.0419 172.966 82.1499 173.719 85.4245C174.417 88.4375 176.193 91.1015 178.144 93.4484C181.664 97.6824 186.588 101.131 191.995 102.4C198.053 103.827 205.125 102.448 209.002 97.2384C212.515 92.5049 213.046 85.266 211.286 79.7634C209.526 74.2608 205.054 69.5828 199.139 68.568C193.224 67.5531 185.977 70.6929 185.906 77.583C185.834 84.4731 192.534 89.5554 197.664 92.7983C200.384 94.5188 203.389 95.9539 206.473 96.9133C207.924 97.3653 209.359 97.3256 210.683 96.4931C211.777 95.8112 212.467 94.7567 213.427 93.9242C214.029 93.4009 215.583 92.9569 216.646 92.4019C218.089 91.6407 219.445 90.7289 220.737 89.7378C222.957 88.0252 224.654 85.8527 226.279 83.5771C227.643 81.6742 228.705 79.5652 229.015 77.2262C229.363 74.5938 228.777 72.009 227.905 69.5353C227.397 68.1081 226.033 67.1249 224.479 67.5372C223.108 67.894 221.966 69.5273 222.481 70.9624C222.814 71.898 223.116 72.8495 223.322 73.8168C223.504 74.6652 223.544 74.8793 223.528 75.799C223.528 75.91 223.417 76.909 223.504 76.4254C223.449 76.7663 223.361 77.1072 223.266 77.4403C223.219 77.6147 223.163 77.7812 223.1 77.9398C223.139 77.8367 223.306 77.4958 223.076 78.0111C222.925 78.3521 222.751 78.6851 222.568 79.0102C220.84 82.0865 218.43 84.7982 215.329 86.709C213.522 87.819 211.333 88.3582 209.732 89.7378C209.09 90.2849 208.297 90.9985 207.813 91.6883C207.948 91.49 208.083 91.8468 207.686 91.7676C207.71 91.7755 208.4 91.6248 208.392 91.6328C208.368 91.6883 206.425 90.9509 206.267 90.8875C201.51 89.0321 197.038 86.0033 193.652 82.1737C192.399 80.7466 191.218 78.8516 191.607 76.8615C191.963 75.0299 194.096 74.1498 195.777 73.9595C199.496 73.5393 203.087 75.7831 204.887 78.9309C207.028 82.6891 207.147 87.597 205.72 91.6407C204.174 96.0253 199.678 97.6666 195.325 97.2939C190.711 96.8975 186.5 94.162 183.369 90.8716C181.775 89.1986 180.229 87.2402 179.468 85.0202C178.556 82.364 179.333 79.9061 180.189 77.3372C181.331 73.9119 175.908 72.5006 174.766 75.91L174.734 75.9259Z" fill="#EC648A"/>
        <path d="M287.433 107.514C284.539 104.573 280.384 103.685 276.396 103.962C272.709 104.208 267.128 104.478 265.986 108.838C264.971 112.708 268.039 116.918 271.314 118.654C274.803 120.494 279.084 120.367 282.906 120.066C286.728 119.764 290.835 119.447 293.895 117.084C296.956 114.722 298.288 110.392 297.804 106.499C296.853 98.9513 290.874 91.0701 283.619 88.5566C281.463 87.8113 278.902 88.0571 277.411 89.9442C275.921 91.8312 276.357 94.1861 276.729 96.3506C277.459 100.648 279.06 104.819 281.28 108.561C283.12 111.669 287.996 108.902 286.157 105.794C284.793 103.494 283.715 101.1 282.969 98.531C282.605 97.2783 282.319 96.0097 282.113 94.7252C282.113 94.6935 281.915 92.9888 281.962 93.0047C282.137 93.0681 281.384 93.7896 281.526 93.6469C281.09 94.083 281.027 93.6073 281.487 93.7817C286.268 95.5657 290.026 99.8789 291.659 104.7C292.373 106.793 292.722 109.171 291.643 111.201C290.486 113.374 288.194 113.762 285.935 114.119C283.342 114.523 280.686 114.69 278.053 114.595C275.786 114.515 273.455 114.04 272.099 112.05C271.742 111.518 271.639 111.066 271.401 110.496C271.076 109.679 271.718 110.274 271.314 110.44C271.385 110.416 271.473 110.297 271.56 110.321C271.695 110.345 272.329 110.123 272.416 110.099C272.836 110.012 273.272 109.956 273.701 109.893C274.311 109.806 274.922 109.719 275.532 109.663C278.291 109.393 281.384 109.393 283.461 111.503C285.99 114.079 289.955 110.115 287.425 107.538L287.433 107.514Z" fill="#DFBFDB"/>
        <path d="M346.21 106.904C343.38 106.832 340.723 108.458 340.042 111.296C339.479 113.651 340.398 116.283 341.445 118.377C342.555 120.613 344.085 122.619 345.124 124.894C345.663 126.068 346.131 126.694 344.743 127.003C342.92 127.4 341.104 127.296 339.177 127.162C336.672 126.987 334.174 127.011 331.669 127.297C328.949 127.606 326.23 128.422 324.35 130.524C322.337 132.775 321.932 135.495 322.915 138.302C323.05 138.69 323.185 139.729 323.415 140.038C323.74 140.474 323.304 139.737 323.589 139.879C323.724 139.761 323.708 139.761 323.534 139.872L323.098 139.99C321.623 140.403 320.045 140.601 318.523 140.76C315.264 141.1 311.982 141.085 308.723 140.76C307.216 140.617 305.916 142.155 305.916 143.566C305.916 145.2 307.208 146.222 308.723 146.373C311.577 146.659 314.44 146.698 317.302 146.484C320.164 146.27 323.486 146.119 326.047 144.875C329.021 143.439 329.48 140.173 328.481 137.318C328.204 136.534 327.696 135.646 328.085 134.845C328.473 134.044 329.298 133.584 330.059 133.299C332.184 132.506 334.935 132.561 337.163 132.648C339.653 132.759 342.127 133.108 344.616 132.728C346.607 132.418 348.533 131.856 349.865 130.238C351.736 127.97 351.356 125.338 350.286 122.825C349.215 120.311 347.693 118.281 346.48 115.958C346.353 115.72 346.242 115.483 346.123 115.253C345.623 114.262 346.25 115.697 345.933 114.777C345.726 114.19 345.584 113.588 345.457 112.969C345.378 112.604 345.623 112.343 345.354 112.644C345.536 112.446 345.845 112.486 346.186 112.493C349.802 112.589 349.794 106.983 346.186 106.88L346.21 106.904Z" fill="#02B0AA"/>
        <path d="M334.539 202.303C336.68 201.082 339.423 200.447 340.47 202.969C340.985 204.214 340.414 205.641 340.01 206.838C339.479 208.432 339.288 210.002 339.383 211.682C339.558 214.759 340.406 217.827 342.856 219.881C345.512 222.109 348.898 222.719 352.228 221.926C353.79 221.554 355.265 220.951 356.763 220.388C357.826 219.992 358.841 219.627 359.816 219.825C360.466 219.952 360.926 220.364 361.497 220.65C361.877 220.84 360.95 220.055 361.521 220.69C361.632 220.801 361.751 220.92 361.862 221.031C362.131 221.3 361.6 220.499 361.98 221.197C362.068 221.364 362.163 221.522 362.242 221.681C362.456 222.069 362.06 221.038 362.298 221.8C362.464 222.347 362.559 222.759 362.583 223.1C362.678 224.606 362.179 225.883 361.885 227.334C361.267 230.426 362.401 234.113 364.359 236.515C366.619 239.298 370.718 239.909 374.032 239.053C377.346 238.196 380.367 235.255 382.167 232.408C384.094 229.356 379.218 226.589 377.291 229.641C376.157 231.441 373.993 233.606 371.677 233.796C370.607 233.883 369.529 233.661 368.926 233.233C368.926 233.233 368.506 232.749 368.379 232.559C367.975 231.917 367.737 231.235 367.546 230.505C367.237 229.245 367.261 228.856 367.554 227.818C368.006 226.192 368.292 224.464 368.157 222.775C367.975 220.515 367.142 218.319 365.493 216.733C364.074 215.361 362.123 214.473 360.189 214.251C357.08 213.903 354.472 215.496 351.586 216.321C350.357 216.662 349.302 216.908 348.065 216.495C347.606 216.337 347.138 216.091 346.67 215.782C345.948 215.314 347.003 216.115 346.496 215.639C346.194 215.338 345.964 215.076 345.75 214.703C344.593 212.721 344.815 210.216 345.568 207.94C346.94 203.793 346.115 199.639 342.492 196.967C339.423 194.707 334.864 195.682 331.78 197.45C328.695 199.218 331.415 204.126 334.547 202.327L334.539 202.303Z" fill="#EC648A"/>
        <path d="M222.798 123.959C223.036 123.816 223.298 123.697 223.544 123.562C223.734 123.483 223.686 123.499 223.409 123.618C223.552 123.57 223.694 123.523 223.845 123.483C224.059 123.427 224.273 123.388 224.495 123.34C224.035 123.419 224.384 123.356 224.654 123.356C224.868 123.348 225.09 123.364 225.304 123.372C225.922 123.372 224.907 123.261 225.462 123.388C225.946 123.491 226.414 123.594 226.874 123.752C227.001 123.8 227.778 124.101 227.175 123.848C227.389 123.935 227.603 124.038 227.817 124.141C228.245 124.347 228.674 124.569 229.086 124.807C229.546 125.061 229.99 125.33 230.434 125.616C230.624 125.743 230.925 126.028 231.139 126.068C231.06 126.052 230.45 125.441 230.743 125.782C231.607 126.789 232.527 127.741 233.36 128.779C233.621 129.104 233.875 129.422 234.129 129.739C234.255 129.897 234.374 130.08 234.509 130.23C234.303 129.992 234.168 129.778 234.446 130.151C234.723 130.524 235.009 130.872 235.207 131.277C235.865 132.585 237.8 133.108 239.037 132.331C240.377 131.483 240.789 129.913 240.091 128.502C239.393 127.09 238.188 125.869 237.205 124.664C236.222 123.459 235.247 122.135 233.946 121.231C229.918 118.408 224.646 116.402 220.031 119.114C218.771 119.851 218.168 121.643 218.977 122.944C219.785 124.244 221.443 124.791 222.806 123.998L222.798 123.959Z" fill="#42AFE4"/>
        <path d="M141.87 123.506C144.827 123.054 147.848 122.983 150.821 123.229C153.263 123.435 156.149 123.927 157.941 125.75C161.073 128.93 158.655 134.25 155.951 136.843C155.127 137.635 154.175 138.333 153.121 138.769C152.558 138.999 151.923 139.158 151.329 139.229C151.162 139.253 150.964 139.261 150.805 139.261C150.671 139.253 151.075 139.689 150.893 139.396C150.441 138.69 150.813 137.35 151.067 136.636C151.416 135.653 152.026 134.741 152.732 133.972C155.92 130.515 160.812 128.969 165.426 129.017C168.019 129.056 170.667 129.58 173.014 130.706C175.361 131.832 177.914 133.354 178.501 136.002C179.278 139.538 184.693 138.103 183.924 134.575C182.33 127.288 173.252 123.903 166.639 123.459C160.027 123.015 152.264 125.496 147.975 130.944C145.763 133.758 144.296 137.651 145.612 141.187C147.277 145.691 152.423 145.287 156.023 143.558C162.183 140.601 166.766 132.45 164.34 125.695C161.026 116.45 148.355 116.846 140.443 118.067C138.944 118.297 138.088 120.137 138.444 121.492C138.865 123.086 140.363 123.728 141.87 123.49L141.87 123.506Z" fill="#42AFE4"/>
        <path d="M206.276 152.106C203.746 155.19 200.963 158.893 201.328 163.127C201.55 165.712 202.85 167.71 204.428 169.7C205.245 170.722 206.989 172.467 206.529 173.91C205.998 175.583 203.033 176.36 201.709 177.24C199.726 178.556 198.014 180.3 197.641 182.735C197.269 185.169 198.379 187.389 200.059 189.086C201.431 190.457 203.294 191.337 204.508 192.852C205.514 194.112 204.642 194.842 203.057 195.207C200.678 195.746 198.188 195.27 195.786 195.912C192.297 196.848 193.724 202.271 197.213 201.335C199.378 200.757 201.669 201.113 203.873 200.749C206.252 200.352 208.615 199.052 209.851 196.927C211.088 194.802 210.811 192.32 209.598 190.378C208.385 188.435 206.751 187.389 205.078 186.065C204.143 185.319 202.573 184.225 203.477 182.988C204 182.259 204.967 181.799 205.744 181.387C206.902 180.768 208.028 180.166 209.082 179.365C211.287 177.668 212.516 175.186 212.087 172.395C211.739 170.096 210.399 168.249 208.979 166.465C207.735 164.903 206.529 163.412 207.076 161.343C207.624 159.273 208.971 157.624 210.248 156.078C211.207 154.913 211.398 153.263 210.248 152.114C209.257 151.123 207.251 150.94 206.284 152.114L206.276 152.106Z" fill="#02B0AA"/>
        <path d="M279.052 148.561C276.039 146.722 272.02 147.427 269.578 149.901C267.009 152.502 266.462 156.442 267.27 159.884C268.135 163.507 270.386 166.774 272.575 169.723C274.874 172.831 277.348 175.892 280.488 178.191C283.374 180.316 286.87 181.371 290.438 180.752C293.76 180.173 297.098 177.771 297.812 174.314C298.573 170.603 295.631 167.662 292.698 165.933C289.954 164.316 286.664 163.531 283.493 163.626C276.325 163.832 269.99 168.391 266.691 174.639C265.122 177.62 264.099 181.038 264.21 184.431C264.337 188.173 265.914 191.511 268.436 194.239C270.957 196.966 273.962 198.814 277.284 200.074C280.4 201.256 284.436 202.073 287.703 201.121C291.635 199.979 293.134 195.563 291.255 192.051C289.376 188.538 285.316 187.048 281.724 186.485C277.879 185.874 273.899 185.985 270.053 186.469C265.811 187 261.34 188.047 258.057 190.98C255.226 193.509 253.688 197.632 254.973 201.311C256.257 204.99 259.587 207.432 262.822 209.446C265.883 211.349 268.666 206.473 265.589 204.57C262.513 202.667 258.128 199.646 261.149 195.833C262.64 193.946 265.137 193.145 267.381 192.614C269.879 192.019 272.432 191.781 274.993 191.725C277.379 191.67 279.79 191.686 282.105 192.288C283.112 192.55 287.211 193.842 286.474 195.531C286.283 195.975 285.546 195.888 285.07 195.888C283.786 195.904 282.549 195.777 281.304 195.484C279.029 194.952 276.912 193.961 274.993 192.614C273.074 191.266 271.298 189.458 270.418 187.293C269.625 185.343 269.681 183.162 270.172 181.149C271.29 176.526 274.446 172.403 278.767 170.365C282.462 168.621 287.029 168.922 290.446 171.166C291.041 171.555 291.818 172.094 292.151 172.728C292.484 173.362 292.048 173.91 291.516 174.361C290.129 175.527 288.06 175.598 286.394 175.075C283.794 174.25 281.764 172.11 280.02 170.112C277.982 167.789 276.135 165.291 274.557 162.651C273.312 160.565 272.059 158.076 272.694 155.586C273.098 153.992 274.644 152.462 276.309 153.477C279.385 155.364 282.161 150.48 279.076 148.601L279.052 148.561Z" fill="#FECB39"/>
        <path d="M326.656 265.257C327.291 265.749 327.41 265.884 327.544 266.415C327.663 266.883 327.6 267.422 327.473 267.723C327.275 268.191 327.093 268.326 326.68 268.484C326.078 268.706 325.491 268.643 324.849 268.461C323.073 267.953 321.939 266.137 320.345 265.21C318.498 264.124 316.103 263.933 314.28 265.17C313.241 265.876 312.559 266.907 312.171 268.088C311.853 269.055 311.996 270.165 311.798 271.045C311.703 271.474 311.33 271.894 310.981 272.29C310.862 272.409 310.751 272.552 310.617 272.671C311.013 272.306 310.728 272.623 310.577 272.663C310.735 272.631 309.895 272.869 309.697 272.909C309.38 272.972 309.332 273.004 308.967 272.972C308.603 272.94 308.983 272.972 309.039 272.98C308.864 272.932 308.69 272.885 308.523 272.829C307.802 272.599 307.215 272.362 306.533 271.997C306.24 271.83 305.637 271.355 306.208 271.862C306.113 271.767 305.994 271.68 305.899 271.585C305.613 271.299 305.336 271.022 305.058 270.728C304.844 270.482 304.583 270.062 304.916 270.586C304.765 270.356 304.614 270.141 304.472 269.904C304.329 269.666 304.21 269.42 304.099 269.166C304.392 269.808 304.107 269.031 304.044 268.857C303.893 268.437 304.036 268.817 304.044 268.952C304.044 268.778 304.044 268.603 304.036 268.437C304.036 268.136 304.02 268.595 304.012 268.619C304.028 268.54 304.218 267.969 304.075 268.334C303.933 268.667 304.099 268.278 304.139 268.254C304.527 267.977 303.996 268.365 304.194 268.135C304.496 267.802 304.821 267.509 305.169 267.24C306.367 266.312 306.145 264.25 305.169 263.275C303.988 262.094 302.41 262.34 301.205 263.275C298.145 265.654 297.716 269.634 299.707 272.845C301.467 275.684 304.139 277.468 307.366 278.348C309.427 278.903 312.028 278.459 313.804 277.254C316.032 275.739 317.229 273.305 317.396 270.697C317.411 270.443 317.578 269.88 317.546 269.69L317.634 269.539C317.554 269.697 317.427 269.808 317.285 269.888C317.277 269.896 317.166 269.943 317.166 269.927C317.174 269.888 317.8 270.245 317.879 270.308C318.506 270.776 319.029 271.394 319.639 271.894C321.574 273.464 324.032 274.447 326.561 274.201C329.543 273.916 332.096 272.013 332.928 269.071C333.689 266.375 332.904 263.069 330.621 261.309C329.416 260.389 327.83 260.135 326.656 261.309C325.697 262.268 325.443 264.346 326.656 265.273L326.656 265.257Z" fill="#42AFE4"/>
        <path d="M366.952 289.567C367.626 289.686 368.26 290.193 368.53 290.828C368.609 291.018 368.625 291.224 368.696 291.422C368.625 291.224 368.855 290.947 368.648 291.438C368.863 290.923 368.395 291.755 368.379 291.771C368.419 291.731 367.8 292.35 367.634 292.485C365.247 294.427 362.075 292.921 359.332 293.016C355.328 293.167 352.759 296.243 352.783 300.168C352.799 302.816 353.75 305.575 353.362 308.215C353.282 308.77 352.957 309.032 353.497 308.747C353.156 308.929 352.704 308.842 352.252 308.818C351.316 308.77 352.672 308.873 351.943 308.794C351.57 308.755 351.197 308.699 350.832 308.651C350.055 308.54 349.286 308.374 348.525 308.2C345.639 307.534 342.785 306.979 339.819 307.47C336.014 308.104 333.508 311.403 333.318 315.145C333.239 316.826 333.746 318.38 334.396 319.902C335.046 321.425 335.934 322.852 335.895 324.509C335.879 325.127 335.8 325.793 335.403 326.301C335.292 326.444 335.149 326.555 334.999 326.658C334.943 326.713 334.293 326.999 334.547 326.951C334.372 326.983 334.119 326.967 333.96 326.951C334.507 327.007 333.143 326.674 333.651 326.864C332.985 326.61 332.366 326.198 331.764 325.833C328.806 324.049 326.15 321.599 322.519 321.472C318.887 321.345 318.919 326.959 322.519 327.086C323.787 327.133 325.056 328.101 326.103 328.814C327.363 329.663 328.608 330.527 329.932 331.264C333.048 332.985 336.466 333.025 339.161 330.456C342.452 327.324 341.706 322.535 340.034 318.816C339.447 317.5 338.733 316.342 338.939 314.963C339.042 314.305 339.336 313.662 339.915 313.29C340.018 313.218 340.24 313.139 340.327 313.1C340.478 313.044 340.644 313.02 340.803 312.973C341.278 312.846 340.517 312.989 340.922 312.933C346.099 312.259 355.954 318.023 358.5 310.705C359.546 307.692 358.817 304.092 358.452 300.984C358.365 300.231 358.214 298.844 358.999 298.614C359.641 298.431 360.569 298.661 361.211 298.733C362.147 298.844 363.09 298.978 364.026 299.026C368.006 299.216 372.867 296.972 374.056 292.834C375.095 289.178 372.026 284.762 368.363 284.112C366.872 283.842 365.342 284.564 364.938 286.11C364.573 287.49 365.445 289.266 366.936 289.535L366.952 289.567Z" fill="#FECB39"/>
        <path d="M300.524 354.757C300.952 355.455 301.388 356.161 301.777 356.882C301.935 357.184 302.102 357.493 302.237 357.802C302.316 357.961 302.379 358.135 302.459 358.294C302.601 358.611 302.252 357.723 302.411 358.198C302.633 358.865 302.823 359.515 302.942 360.204C303.037 360.728 302.918 359.61 302.934 360.197C302.942 360.347 302.95 360.498 302.958 360.648C302.974 361.029 302.942 361.394 302.934 361.766C302.934 362.099 303.069 361.204 302.934 361.687C302.887 361.862 302.855 362.036 302.8 362.218C302.72 362.488 302.482 362.742 302.815 362.234C302.72 362.377 302.657 362.583 302.578 362.742C302.403 363.075 302.205 363.4 301.983 363.717C301.919 363.812 301.547 364.201 301.864 363.883C302.197 363.55 301.721 364.042 301.658 364.121C300.667 365.287 299.509 366.302 298.351 367.317C297.194 368.331 297.281 370.306 298.351 371.281C299.533 372.367 301.134 372.32 302.316 371.281C305.17 368.76 308.112 365.961 308.508 361.965C308.865 358.325 307.224 355.003 305.361 352.014C304.584 350.777 302.855 350.127 301.531 350.96C300.286 351.744 299.644 353.449 300.476 354.789L300.524 354.757Z" fill="#02B0AA"/>
        <path d="M337.82 357.58C336.092 359.689 328.179 367.316 326.411 368.656C325.245 369.536 324.476 371.083 325.356 372.486C326.078 373.636 327.925 374.484 329.186 373.54C333.848 370.036 338.09 366.079 341.785 361.56C342.712 360.426 342.974 358.69 341.785 357.596C340.754 356.66 338.812 356.383 337.82 357.596L337.82 357.58Z" fill="#FECB39"/>
        <path d="M95.1765 145.239C93.448 147.348 77.9314 165.957 76.1632 167.297C74.9977 168.177 74.2286 169.723 75.1087 171.127C75.8302 172.276 77.6776 173.125 78.9383 172.181C83.6004 168.677 95.4381 153.731 99.1408 149.219C100.068 148.086 100.33 146.349 99.1408 145.255C98.1101 144.319 96.1675 144.042 95.1764 145.255L95.1685 145.247L95.1765 145.239Z" fill="#EC6647"/>
        <path d="M244.554 354.654C246.505 355.97 248.471 357.302 250.635 358.262C253.062 359.324 255.575 359.966 258.215 360.149C260.856 360.331 263.274 359.8 265.541 358.69C267.944 357.508 269.815 355.542 271.314 353.362C272.146 352.148 271.528 350.182 270.259 349.532C268.808 348.795 267.333 349.286 266.43 350.586C266.382 350.666 265.851 351.371 266.057 351.118C266.263 350.864 265.708 351.514 265.653 351.585C265.327 351.942 264.986 352.283 264.638 352.6C264.463 352.759 264.281 352.91 264.098 353.044C264.638 352.616 264.083 353.044 263.948 353.132C263.536 353.401 263.107 353.655 262.663 353.861C262.013 354.178 262.925 353.806 262.394 353.988C262.18 354.059 261.958 354.139 261.752 354.202C261.308 354.329 260.856 354.416 260.396 354.511C260.094 354.559 260.079 354.559 260.396 354.511C260.277 354.519 260.158 354.527 260.039 354.535C259.801 354.551 259.555 354.559 259.309 354.567C258.762 354.575 258.223 354.543 257.684 354.495C256.859 354.416 258.176 354.59 257.327 354.44C257.074 354.392 256.812 354.353 256.558 354.305C256.027 354.202 255.512 354.083 254.996 353.932C254.505 353.79 254.029 353.631 253.553 353.457C252.84 353.203 254.069 353.702 253.387 353.385C253.181 353.29 252.974 353.195 252.768 353.1C250.842 352.172 249.066 350.967 247.305 349.778C246.084 348.953 244.134 349.556 243.476 350.832C242.738 352.267 243.222 353.782 244.53 354.662L244.554 354.654Z" fill="#FECB39"/>
        <path d="M212.206 375.507C214.632 375.729 217.042 376.316 219.318 377.18C220.269 377.544 221.197 377.981 222.093 378.464C222.648 378.766 223.203 379.067 223.734 379.408C223.956 379.535 224.17 379.685 224.368 379.836C224.725 380.256 224.812 380.327 224.638 380.058C224.686 380.137 224.575 380.486 224.479 380.613C223.94 381.342 223.393 381.683 222.648 382.096C220.832 383.103 218.905 384.347 218.366 386.504C217.058 391.729 224.701 394.393 228.602 394.71C229.118 394.75 230.751 395.051 231.179 394.734C231.298 393.41 231.179 393.117 230.815 393.846C230.648 394.028 230.489 394.219 230.339 394.417C229.99 394.829 229.633 395.234 229.268 395.63C227.373 397.699 225.249 399.523 222.91 401.069C221.649 401.902 221.07 403.511 221.855 404.899C222.561 406.144 224.416 406.794 225.685 405.953C227.825 404.526 229.879 402.932 231.734 401.141C233.328 399.594 235.437 397.676 236.23 395.551C237.173 393.021 235.643 390.492 233.217 389.588C231.203 388.843 229.007 389.358 226.945 388.74C226.113 388.494 225.352 388.114 224.606 387.654C224.559 387.622 223.845 387.083 223.821 387.091C223.821 387.091 223.758 388.169 223.687 388.129C223.615 388.09 225.217 387.091 225.423 386.98C226.248 386.52 227.032 385.973 227.73 385.338C229.142 384.054 230.236 382.23 230.283 380.28C230.339 377.782 228.705 375.959 226.723 374.674C222.41 371.867 217.304 370.377 212.214 369.901C210.707 369.758 209.415 371.289 209.407 372.708C209.407 374.341 210.691 375.372 212.214 375.515L212.206 375.507Z" fill="#42AFE4"/>
        <path d="M60.0595 288.25C61.8039 290.375 63.564 292.484 65.5621 294.387C67.3699 296.116 69.2807 297.725 71.1043 299.422C72.1826 300.421 74.0142 300.572 75.0687 299.422C76.0598 298.336 76.2184 296.528 75.0687 295.458C73.2372 293.769 71.3263 292.143 69.5265 290.423C67.5364 288.528 65.7682 286.411 64.0239 284.286C63.0883 283.144 61.011 283.239 60.0595 284.286C58.9574 285.499 59.0605 287.029 60.0595 288.25Z" fill="#EC6647"/>
        <path d="M169.692 267.691C164.395 268.262 159.376 270.696 155.959 274.859C155.031 275.993 154.77 277.729 155.959 278.823C156.998 279.767 158.932 280.036 159.923 278.823C160.637 277.951 161.422 277.15 162.294 276.437C162.397 276.349 162.508 276.254 162.619 276.175C162.302 276.413 162.27 276.444 162.524 276.254C162.698 276.127 162.865 276.008 163.047 275.889C163.507 275.572 163.991 275.279 164.482 275.009C164.974 274.74 165.482 274.502 165.997 274.272C166.647 273.987 165.434 274.47 166.1 274.232C166.37 274.137 166.623 274.042 166.901 273.955C167.44 273.78 167.979 273.638 168.526 273.519C168.804 273.463 169.081 273.408 169.351 273.36C169.486 273.336 169.628 273.321 169.763 273.297C169.398 273.344 169.375 273.352 169.684 273.313C170.445 273.233 171.095 273.059 171.666 272.488C172.15 272.004 172.522 271.204 172.491 270.506C172.435 269.118 171.246 267.533 169.684 267.699L169.692 267.691Z" fill="#42AFE4"/>
        <path d="M148.037 221.141C148.481 221.03 148.925 220.919 149.377 220.832C149.552 220.8 149.742 220.769 149.916 220.737C149.488 220.8 150.083 220.713 150.162 220.713C151.034 220.634 151.906 220.618 152.779 220.666C153.786 220.721 153.968 220.745 155.07 220.991C155.926 221.181 156.767 221.435 157.576 221.736C157.623 221.752 158.107 221.95 157.885 221.855C157.615 221.744 158.249 222.029 158.305 222.053C158.725 222.251 159.138 222.458 159.534 222.68C159.891 222.878 160.248 223.092 160.596 223.314C160.787 223.441 160.977 223.568 161.167 223.694C161.215 223.742 161.794 224.162 161.532 223.964C161.294 223.774 161.897 224.265 161.873 224.257C162.008 224.376 162.15 224.503 162.285 224.622C162.626 224.931 162.959 225.249 163.268 225.589C163.578 225.93 163.887 226.271 164.172 226.62C163.982 226.382 164.101 226.517 164.228 226.676C164.386 226.898 164.537 227.128 164.696 227.366C165.528 228.626 167.138 229.205 168.525 228.42C169.778 227.706 170.412 225.867 169.58 224.59C164.688 217.177 155.26 213.427 146.626 215.718C143.129 216.646 144.557 222.069 148.053 221.141L148.037 221.141Z" fill="#DFBFDB"/>
        <path d="M136.414 177.834C138.879 181.474 143.478 181.331 147.411 181.743C151.344 182.156 155.244 182.568 159.153 182.988C160.62 183.139 162.016 181.585 161.96 180.181C161.897 178.532 160.715 177.541 159.153 177.375C155.681 177.01 152.216 176.637 148.751 176.28C147.07 176.106 145.397 175.908 143.716 175.749C143.391 175.709 143.343 175.709 143.597 175.741C143.415 175.717 143.224 175.686 143.034 175.654C142.662 175.583 142.305 175.48 141.932 175.392C141.615 175.281 141.575 175.273 141.837 175.376C141.67 175.305 141.52 175.218 141.361 175.123C141.599 175.329 141.591 175.321 141.337 175.099C141.107 174.853 141.092 174.853 141.29 175.067C140.473 173.854 138.816 173.164 137.46 174.013C136.255 174.774 135.526 176.534 136.406 177.842L136.414 177.834Z" fill="#FECB39"/>
        <path d="M95.5566 225.986C92.9797 225.851 90.4742 225.106 88.2145 223.861C87.1204 223.259 86.1055 222.577 85.1778 221.744C84.6704 221.3 84.2026 220.832 83.7427 220.341C83.5445 220.127 83.3463 219.897 83.156 219.675C82.6406 219.048 82.9419 219.207 82.8864 219.675L82.5217 221.054C82.7199 220.698 82.6961 220.674 82.4582 220.991C82.6247 220.872 82.7992 220.777 82.9895 220.713C83.4573 220.531 84.0123 220.468 84.4959 220.412C85.6773 220.277 86.8904 220.254 88.0797 220.285C90.387 220.357 92.6546 220.769 94.8588 221.451C97.063 222.133 99.3307 223.052 101.091 224.448C102.661 225.685 102.605 227.183 101.567 228.793C100.401 230.593 98.4823 232.115 96.7618 233.376C94.8906 234.755 92.8608 235.929 90.7438 236.888C88.6268 237.848 86.5812 238.418 84.4087 238.815C83.37 238.997 82.3234 239.108 81.2689 239.132C80.698 239.148 80.1192 239.156 79.5404 239.132C79.2471 239.124 78.9616 239.108 78.6762 239.092C78.1053 239.045 78.1053 239.045 78.6524 239.116L79.7069 240.171C79.9845 240.528 79.4215 241.328 79.8576 240.416C80.0162 240.083 80.143 239.75 80.3175 239.433C80.6108 238.87 80.9597 238.331 81.3561 237.824C82.2679 236.69 83.3938 235.723 84.6307 234.962C87.2076 233.368 90.1174 232.551 93.0669 231.949C96.6111 231.227 95.1681 225.804 91.6398 226.525C87.3265 227.413 83.1401 228.888 79.6594 231.671C77.8992 233.082 76.3451 234.874 75.3223 236.896C74.2995 238.918 73.4194 241.384 75.0528 243.255C76.5037 244.928 78.9775 244.817 81.0311 244.761C83.0846 244.706 84.9558 244.452 86.8666 244.032C90.6883 243.192 94.399 241.59 97.6973 239.497C100.996 237.404 104.698 234.652 106.657 231.172C107.68 229.356 108.147 227.255 107.807 225.185C107.426 222.838 105.88 221.086 104.024 219.722C100.861 217.415 96.8252 215.948 92.9956 215.243C89.166 214.537 84.1471 214.053 80.4443 215.726C78.1133 216.773 76.3055 219.358 77.7961 221.847C78.922 223.734 80.6663 225.384 82.3948 226.716C86.2085 229.673 90.72 231.346 95.5328 231.608C99.1404 231.806 99.1324 226.2 95.5328 225.994L95.5566 225.986Z" fill="#02B0AA"/>
        <path d="M129.85 302.554C131.309 298.511 129.255 293.809 125.323 292.128C120.867 290.225 116.078 292.397 113.858 296.568C112.787 298.59 112.351 300.786 112.113 303.038C112.002 304.005 111.97 304.988 111.852 305.948C111.78 306.495 111.653 307.573 111.4 307.97C111.162 308.334 110.028 308.644 109.703 308.699C109.061 308.802 108.823 308.675 108.284 308.31C107.998 308.12 107.602 307.629 107.435 307.113C107.332 306.772 107.372 306.907 107.372 306.368C107.372 305.972 107.403 305.575 107.427 305.187C107.514 303.672 106.079 302.38 104.62 302.38C103.035 302.38 101.901 303.672 101.814 305.187C101.703 307.026 101.837 308.826 102.805 310.443C103.883 312.235 105.651 313.607 107.689 314.106C109.727 314.606 112.113 314.075 113.937 313.044C116.054 311.831 116.918 309.682 117.275 307.375C117.743 304.306 117.235 298.756 120.763 297.226C121.929 296.727 123.253 297.067 124.014 297.892C124.775 298.717 124.878 299.898 124.434 301.135C123.919 302.554 125.061 304.203 126.433 304.56C128.002 304.972 129.334 303.989 129.858 302.562L129.85 302.554Z" fill="#DFBFDB"/>
        <path d="M131.149 349.81C127.558 349.326 124.005 350.896 122.309 354.226C120.612 357.556 121.444 361.322 123.688 364.042C126.051 366.912 130.047 367.927 133.607 367.221C135.201 366.912 136.573 365.858 138.142 365.588C138.222 365.572 139.046 365.54 138.697 365.493C138.618 365.477 138.626 365.295 138.626 365.231C138.61 365.421 138.602 366.127 138.602 366.095C138.452 367.435 138.095 368.728 138.222 370.092C138.436 372.256 139.665 374.103 141.576 375.158C144.898 376.99 148.426 376.109 151.859 375.214C152.589 375.023 153.318 374.817 154.063 374.77C154.357 374.746 154.753 374.841 155.031 374.77L155.261 374.825C155.871 375.023 155.728 374.69 154.817 373.81C154.634 373.818 155.435 373.001 154.706 373.985C154.507 374.246 154.365 374.643 154.214 374.936C153.746 375.911 153.405 376.871 153.334 377.957C153.128 381.192 155.403 384.355 158.194 385.798C161.635 387.574 166.266 387.448 169.049 384.506C172.078 381.303 171.499 375.745 167.677 373.477C164.569 371.638 161.802 376.514 164.91 378.353C166.226 379.13 164.997 381.009 163.768 381.287C161.984 381.691 159.955 380.756 159.201 379.225C158.9 378.623 158.852 378.29 159.098 377.695C159.637 376.395 160.422 375.277 160.422 373.802C160.43 369.973 156.339 368.878 153.215 369.243C150.733 369.537 148.093 370.987 145.58 370.647C143.066 370.306 143.788 369.061 144.049 367.182C144.47 364.24 143.637 361.235 140.513 360.22C139.149 359.776 137.627 359.855 136.263 360.268C134.9 360.68 133.615 361.552 132.156 361.774C130.031 362.107 127.772 361.084 127.145 358.936C126.677 357.326 127.764 354.94 129.698 355.193C131.197 355.392 132.703 354.789 133.124 353.195C133.472 351.863 132.632 349.976 131.125 349.77L131.149 349.81Z" fill="#FECB39"/>
        <path d="M189.68 421.66C190.06 421.407 190.449 421.177 190.869 421.01C190.591 421.129 190.79 421.042 190.956 421.002C191.17 420.947 191.392 420.883 191.606 420.828C191.686 420.812 192.272 420.717 191.836 420.772C192.019 420.749 192.201 420.741 192.383 420.733C192.613 420.725 192.835 420.725 193.065 420.733C193.208 420.733 193.692 420.772 193.311 420.725C195.158 420.939 196.419 421.708 197.656 422.945C198.893 424.182 199.749 425.672 200.13 427.052C200.193 427.274 200.249 427.504 200.296 427.726C200.312 427.789 200.415 428.463 200.383 428.194C200.36 427.948 200.399 428.669 200.391 428.661C200.399 428.844 200.383 429.018 200.383 429.209C200.376 429.676 200.423 429.169 200.36 429.439C200.312 429.661 200.257 429.875 200.201 430.089C200.154 430.279 200.058 430.422 200.185 430.168C200.066 430.414 199.932 430.644 199.781 430.874C198.964 432.15 199.567 433.974 200.835 434.703C202.207 435.488 203.84 434.933 204.665 433.649C207.686 428.931 205.244 422.62 201.62 418.996C197.822 415.198 191.59 413.724 186.897 416.816C185.636 417.648 185.065 419.266 185.842 420.646C186.556 421.898 188.395 422.533 189.672 421.7L189.68 421.66Z" fill="#DFBFDB"/>
        <path d="M173.791 319.982C174.354 323.415 176.693 326.055 179.484 327.958C182.084 329.734 185.422 331.121 188.602 331.209C191.781 331.296 195.206 330.107 197.894 328.37C201.01 326.348 203.119 323.637 204.705 320.322C207.639 314.201 208.67 306.336 204.174 300.604C202.081 297.924 198.552 296.235 195.143 297.139C191.734 298.043 189.284 301.397 189.918 304.853C190.37 307.335 191.821 309.864 193.375 311.815C194.279 312.957 195.373 313.845 196.459 314.804C197.839 316.025 199.044 317.278 200.772 318.007C203.714 319.252 206.989 319.799 210.089 318.824C212.84 317.96 215.536 316.311 217.415 314.114C219.548 311.601 220.571 308.58 220.872 305.329C221.007 303.862 220.975 302.372 220.959 300.897C220.951 299.287 221.086 297.678 221.038 296.076C220.919 292.675 219.667 289.123 216.392 287.577C212.943 285.951 209.034 287.402 207.71 291.042C206.283 294.958 208.677 299.065 211.619 301.579C214.561 304.092 218.2 305.305 221.998 305.805C224.02 306.067 225.93 306.249 227.921 305.67C229.554 305.194 231.243 304.489 232.694 303.593C236.119 301.5 237.982 298.241 238.712 294.356C238.989 292.873 238.244 291.335 236.714 290.931C235.326 290.574 233.574 291.438 233.288 292.929C232.908 294.942 232.353 296.861 230.696 298.201C229.34 299.287 227.08 300.374 225.352 300.501C223.179 300.659 220.555 300.049 218.541 299.287C216.527 298.526 214.687 297.194 213.554 295.363C213.118 294.657 212.325 292.31 213.625 292.5C215.227 292.738 215.441 295.157 215.441 296.52C215.449 298.859 215.401 301.222 215.361 303.561C215.322 305.583 215.036 307.533 214.014 309.317C212.618 311.728 208.741 314.273 205.855 313.686C204.8 313.472 203.682 313.242 202.707 312.774C201.613 312.235 200.765 311.133 199.837 310.348C198.426 309.143 197.252 307.922 196.42 306.249C196.039 305.488 195.73 304.83 195.516 304.14C195.381 303.704 195.357 303.537 195.817 303.077C196.983 301.912 198.759 302.879 199.71 303.973C201.09 305.559 201.589 308.073 201.676 310.11C201.764 312.148 201.272 314.289 200.471 316.231C199.464 318.665 198.251 321.036 196.213 322.757C194.437 324.247 192.09 325.341 189.775 325.611C187.46 325.881 185.303 324.929 183.385 323.819C181.299 322.622 179.634 321.052 179.238 318.61C178.992 317.111 177.184 316.255 175.813 316.612C174.227 317.024 173.569 318.539 173.815 320.037L173.791 319.982Z" fill="#EC648A"/>
        <path d="M243.928 226.977C241.367 224.591 237.419 223.259 233.962 224.337C230.917 225.288 228.293 228.293 227.278 231.259C226.366 233.915 226.342 237.522 227.294 240.171C228.372 243.136 230.6 245.523 233.106 247.362C238.14 251.065 244.119 250.446 249.915 249.202C250.438 249.091 250.961 248.98 251.492 248.892C251.699 248.861 251.905 248.829 252.103 248.805C252.008 248.821 251.532 248.869 252.063 248.813C252.626 248.758 253.197 248.71 253.768 248.71C254.941 248.694 255.1 248.678 256.067 248.932C256.266 248.987 256.464 249.043 256.646 249.114C257.09 249.273 256.059 248.845 256.733 249.17C256.868 249.241 257.439 249.669 256.9 249.225C257.003 249.313 257.701 250.026 257.201 249.479C257.542 249.868 257.645 250.335 257.431 251.311C257.217 252.286 256.115 253.229 255.235 254.094C254.355 254.958 253.562 255.814 252.729 256.678C251.025 258.447 249.455 260.492 248.495 262.768C247.092 266.106 247.29 269.888 250.295 272.306C254.315 275.549 260.111 275.652 265.035 275.596C270.593 275.541 277.507 275.89 280.647 281.392C282.185 284.088 282.526 287.886 282.193 290.931C281.804 294.57 279.418 298.082 276.928 300.62C274.438 303.157 278.371 307.169 280.892 304.584C283.414 301.999 285.634 298.653 286.91 295.077C287.949 292.168 287.973 289.099 287.656 286.055C287.299 282.59 286.331 279.307 284.088 276.588C281.994 274.05 279.037 272.266 275.953 271.212C271.116 269.563 266.097 270.252 261.118 269.967C259.865 269.888 258.628 269.729 257.399 269.452C256.083 269.15 255.496 268.992 254.585 268.492C254.371 268.373 253.49 267.715 254.093 268.223C253.855 268.017 253.657 267.755 253.403 267.565C252.904 267.176 253.911 267.977 253.443 267.604C253.332 267.509 253.284 267.287 253.213 267.168C253.633 267.779 253.261 267.184 253.157 266.78C253.364 267.604 253.205 266.811 253.181 266.55C253.165 266.359 253.284 265.812 253.142 266.621C253.173 266.463 253.181 266.296 253.229 266.137C253.3 265.876 253.379 265.606 253.459 265.337C253.506 265.162 253.752 264.615 253.419 265.376C253.483 265.218 253.546 265.059 253.633 264.908C253.919 264.353 254.22 263.798 254.561 263.267C254.712 263.037 254.878 262.807 255.029 262.577C255.116 262.443 255.227 262.316 255.314 262.181C254.767 262.95 255.195 262.332 255.33 262.165C256.963 260.199 258.89 258.51 260.587 256.607C262.616 254.324 263.639 251.398 262.791 248.361C262.101 245.895 260.095 244.27 257.709 243.548C254.624 242.637 251.302 243.184 248.234 243.826C245.165 244.468 241.74 245.198 238.854 244.167C236.253 243.231 233.962 241.114 232.741 238.751C232.376 238.038 232.226 236.571 232.257 235.35C232.289 233.875 232.511 232.797 233.312 231.695C233.97 230.783 234.945 229.744 236.008 229.602C237.411 229.419 238.933 229.99 239.948 230.942C242.58 233.4 246.553 229.443 243.913 226.977L243.928 226.977Z" fill="#DFBFDB"/>
    </g>
    <defs>
        <clipPath id="clip0_174_1165">
            <rect width="327.655" height="340" fill="white" transform="translate(240.416) rotate(45)"/>
        </clipPath>
    </defs>
</svg>
