<svg width="46" height="55" viewBox="0 0 46 55" fill="none" xmlns="http://www.w3.org/2000/svg">
    <path d="M44.8598 7.60424L30.5977 1.54564C25.746 -0.515213 20.2617 -0.515213 15.41 1.54564L1.14793 7.60424C0.793109 7.60424 0.5 7.84442 0.5 8.14657V39.7567C0.5 43.2198 2.81402 46.3963 6.4856 47.9768L22.7069 54.9419C22.892 55.0194 23.108 55.0194 23.2931 54.9419L39.5144 47.9768C43.186 46.3963 45.5 43.2276 45.5 39.7567V8.14657C45.5 7.84442 45.2069 7.60424 44.8521 7.60424H44.8598ZM22.9537 9.02205C25.9465 9.02205 28.3222 11.5632 28.168 14.5693L27.3966 27.6317C27.2424 29.9095 25.3294 31.7767 23.0077 31.7767C20.686 31.7767 18.7268 29.9095 18.5725 27.6317L17.7472 14.5693C17.5389 11.509 19.9686 9.02205 22.9614 9.02205H22.9537ZM23.0077 44.6764C20.0149 44.6764 17.5389 42.1352 17.5389 39.1833C17.5389 36.2315 20.0149 33.6361 23.0077 33.6361C26.0005 33.6361 28.4765 36.1773 28.4765 39.1833C28.4765 42.1894 26.0005 44.6764 23.0077 44.6764Z" fill="#009FE3"/>
</svg>
