<svg width="53" height="52" viewBox="0 0 53 52" fill="none" xmlns="http://www.w3.org/2000/svg">
    <path d="M52.2443 21.9213C51.087 12.019 43.4294 9.91694 40.0446 9.47749C38.6252 9.29439 37.2858 8.67915 36.2377 7.69039C34.0976 5.68356 33.3188 3.47166 33.0494 1.94091C32.8456 0.820308 31.8921 0 30.7565 0H29.4463C28.0778 0 26.9932 1.19384 27.1388 2.56346C27.5756 6.65768 29.3589 10.3784 30.56 11.7846C31.2515 12.5903 31.4699 13.6962 31.1569 14.7143C30.3198 17.4316 28.7548 22.4486 28.3253 23.5253C27.4154 25.7884 23.623 28.7621 22.1163 30.1537C21.7669 30.4759 21.3374 30.6883 20.8788 30.8055C17.1519 31.7503 13.5415 34.951 11.9692 36.4891C11.4524 36.9944 10.7318 37.2215 10.0184 37.1263C2.71754 36.1522 0.941442 44.1282 0.511977 48.3909C0.373675 49.7678 1.45098 50.9543 2.81944 50.9543H5.25793C6.32796 50.9543 7.25968 50.2146 7.51444 49.1672C8.1914 46.3254 9.91654 41.4768 13.294 45.3513C20.0272 53.0783 28.3253 53.2102 38.4432 50.0901C48.5684 46.97 53.7365 34.6873 52.2443 21.9139V21.9213ZM29.8248 47.6438C20.2892 49.1746 16.031 44.9778 16.031 41.6966C16.031 38.8108 16.7661 36.3426 27.0515 35.0316C35.9829 33.8963 41.7406 29.2455 44.1646 26.682C44.8998 25.9056 46.1882 26.0814 46.6613 27.0409C51.4946 36.8626 38.7781 46.2083 29.8248 47.6438Z" fill="#009FE3"/>
</svg>
