<svg width="37" height="54" viewBox="0 0 37 54" fill="none" xmlns="http://www.w3.org/2000/svg">
    <path d="M34.8368 30.4344L20.1707 1.0193C19.857 0.387942 19.2153 0 18.5023 0C17.7893 0 17.1476 0.387942 16.8339 1.0193L2.16779 30.4344C-0.177938 35.1354 -0.0424707 40.4601 2.53141 45.0393C5.64716 50.5694 11.7646 54 18.5023 54C25.24 54 31.3574 50.5618 34.4661 45.0393C37.0471 40.4601 37.1754 35.1354 34.8297 30.4344H34.8368ZM15.6789 47.192C12.0284 46.9866 8.69874 45.3284 7.00896 42.3237C5.61151 39.8363 5.53308 36.9458 6.80933 34.3899L14.7734 18.4158C14.9445 18.0735 15.2939 17.8605 15.6789 17.8605C16.0639 17.8605 16.4132 18.0735 16.5844 18.4158L13.4472 32.2981C12.4063 36.9153 15.7359 41.3272 20.1849 41.2283C22.8515 41.1675 22.4451 47.5647 15.6789 47.1844V47.192Z" fill="#009FE3"/>
</svg>
