<svg width="53" height="52" viewBox="0 0 53 52" fill="none" xmlns="http://www.w3.org/2000/svg">
    <path d="M46.7633 16.4203V8.71549C46.7633 3.91099 42.6459 0 37.5878 0H15.4045C10.3464 0 6.23665 3.91099 6.23665 8.71549V16.4203C3.03677 16.6034 0.5 19.1228 0.5 22.2062V46.1994C0.5 49.4 3.22954 52 6.60676 52H46.3932C49.7627 52 52.5 49.4073 52.5 46.1994V22.2062C52.5 19.1228 49.9632 16.6034 46.7633 16.4203ZM26.5 47.2175C18.9359 47.2175 12.806 41.3949 12.806 34.2101C12.806 27.0254 18.9359 21.2028 26.5 21.2028C34.0641 21.2028 40.1939 27.0254 40.1939 34.2101C40.1939 41.3949 34.0641 47.2175 26.5 47.2175ZM40.6257 16.413H12.3665V8.71549C12.3665 7.1262 13.7313 5.82986 15.4045 5.82986H37.5878C39.261 5.82986 40.6257 7.1262 40.6257 8.71549V16.413Z" fill="#009FE3"/>
    <path d="M31.8081 30.3081H30.1919V28.6919C30.1919 26.6545 28.5374 25 26.5 25C24.4626 25 22.8081 26.6545 22.8081 28.6919V30.3081H21.1919C19.1545 30.3081 17.5 31.9626 17.5 34C17.5 36.0374 19.1545 37.6919 21.1919 37.6919H22.8081V39.3081C22.8081 41.3455 24.4626 43 26.5 43C28.5374 43 30.1919 41.3455 30.1919 39.3081V37.6919H31.8081C33.8455 37.6919 35.5 36.0374 35.5 34C35.5 31.9626 33.8455 30.3081 31.8081 30.3081Z" fill="#009FE3"/>
</svg>
