<svg width="293" height="304" viewBox="0 0 293 304" fill="none" xmlns="http://www.w3.org/2000/svg">
<g clip-path="url(#clip0_140_1153)">
<path d="M6.46032 89.3001C7.77032 91.9201 9.27032 94.3401 11.8103 95.9301C14.1503 97.3901 16.9503 97.9501 19.6603 98.2001C24.5503 98.6501 29.8303 97.7201 34.0403 95.1101C38.7603 92.1901 42.3503 86.8601 41.5103 81.1301C40.7403 75.9301 36.5103 71.0301 31.9303 68.6701C27.3503 66.3101 21.5803 66.1801 17.2103 69.2701C12.8403 72.3601 10.2503 78.9101 14.5503 83.3001C18.8503 87.6901 26.2803 86.6701 31.5603 85.4801C34.3603 84.8501 37.1603 83.8601 39.7103 82.5201C40.9103 81.8901 41.7903 80.9601 42.1003 79.6001C42.3603 78.4801 42.1303 77.3801 42.2103 76.2501C42.2603 75.5401 42.9603 74.2801 43.2803 73.2601C43.7103 71.8701 43.9903 70.4401 44.1803 69.0001C44.5003 66.5201 44.2003 64.0801 43.7903 61.6201C43.4503 59.5601 42.7903 57.5601 41.5103 55.8901C40.0703 54.0101 38.0703 52.7501 35.9603 51.7401C34.7403 51.1601 33.2603 51.4001 32.5403 52.6401C31.9003 53.7301 32.2103 55.4801 33.4403 56.0601C34.2403 56.4401 35.0303 56.8501 35.7703 57.3301C36.4203 57.7501 36.5803 57.8601 37.1503 58.4501C37.2203 58.5201 37.7803 59.2201 37.5303 58.8601C37.7103 59.1101 37.8703 59.3801 38.0203 59.6501C38.1003 59.7901 38.1703 59.9301 38.2303 60.0701C38.1903 59.9801 38.0803 59.6601 38.2603 60.1301C38.3803 60.4401 38.4803 60.7601 38.5703 61.0801C39.4203 64.1101 39.6103 67.3401 38.8603 70.5001C38.4203 72.3401 37.3803 74.0601 37.2403 75.9401C37.1803 76.6901 37.1303 77.6401 37.2603 78.3801C37.2203 78.1701 37.5303 78.3101 37.2303 78.5101C37.2503 78.5001 37.5903 77.9701 37.5903 77.9801C37.6103 78.0301 35.9203 78.7901 35.7803 78.8501C31.6103 80.6801 26.8803 81.5901 22.3303 81.3101C20.6403 81.2001 18.7003 80.7501 17.6903 79.2501C16.7603 77.8701 17.5503 75.9701 18.4903 74.7901C20.5703 72.1801 24.2503 71.3301 27.3703 72.1801C31.0903 73.2001 34.2603 76.2201 35.9103 79.6701C37.7003 83.4101 35.9003 87.2801 32.9203 89.7901C29.7603 92.4501 25.3803 93.3801 21.3303 93.2801C19.2703 93.2301 17.0603 92.9701 15.1803 92.0501C12.9303 90.9501 11.8703 88.9101 10.7903 86.7501C9.35032 83.8701 5.04032 86.4001 6.47032 89.2701L6.46032 89.3001Z" fill="#EC648A"/>
<path d="M97.4494 38.15C93.7694 38.12 90.5894 40.18 88.2494 42.87C86.0794 45.35 82.7294 49.04 84.7594 52.51C86.5594 55.59 91.1494 56.31 94.3094 55.34C97.6694 54.3 100.289 51.52 102.509 48.92C104.729 46.32 107.119 43.53 107.559 40.11C107.999 36.69 106.109 33.12 103.349 30.97C97.9894 26.81 89.2494 25.61 83.0894 28.6C81.2594 29.49 79.7994 31.26 80.0494 33.39C80.2994 35.52 82.0594 36.73 83.6594 37.86C86.8294 40.11 90.4694 41.73 94.2294 42.69C97.3494 43.49 98.6794 38.67 95.5594 37.87C93.2494 37.28 91.0594 36.45 88.9694 35.3C87.9494 34.74 86.9694 34.12 86.0294 33.44C86.0094 33.42 84.8094 32.47 84.8494 32.45C84.9994 32.38 84.9794 33.31 84.9794 33.13C84.9794 33.68 84.6394 33.42 85.0394 33.24C89.1794 31.35 94.2694 31.7 98.3394 33.71C100.109 34.58 101.829 35.86 102.429 37.82C103.069 39.92 101.869 41.61 100.669 43.26C99.2894 45.15 97.7194 46.93 95.9994 48.53C94.5194 49.91 92.7494 51.08 90.6394 50.68C90.0794 50.57 89.7294 50.35 89.2194 50.14C88.4994 49.83 89.2794 49.8 89.1294 50.16C89.1594 50.1 89.1394 49.97 89.2094 49.93C89.3094 49.86 89.5694 49.32 89.6094 49.25C89.8194 48.93 90.0594 48.62 90.2894 48.31C90.6194 47.87 90.9494 47.43 91.2994 47.01C92.8694 45.1 94.8194 43.15 97.4594 43.17C100.679 43.2 100.679 38.2 97.4594 38.17L97.4494 38.15Z" fill="#DFBFDB"/>
<path d="M134.13 0.700094C132.3 2.44009 131.65 5.14009 133.01 7.36009C134.14 9.20009 136.38 10.2801 138.36 10.9401C140.47 11.6501 142.7 11.9501 144.79 12.7301C145.87 13.1301 146.56 13.2301 145.88 14.3001C144.98 15.7001 143.77 16.7801 142.47 17.9101C140.78 19.3801 139.22 20.9701 137.82 22.7301C136.3 24.6401 135.1 26.8701 135.24 29.3801C135.39 32.0701 136.85 34.0401 139.24 35.1901C139.57 35.3501 140.31 35.9201 140.65 35.9701C141.13 36.0401 140.39 35.8501 140.66 35.7601C140.67 35.6001 140.66 35.6101 140.62 35.7901L140.42 36.1401C139.75 37.3301 138.88 38.4501 138.02 39.5101C136.18 41.7801 134.1 43.8401 131.84 45.6901C130.8 46.5501 130.95 48.3401 131.84 49.2301C132.87 50.2601 134.33 50.0901 135.38 49.2301C137.36 47.6101 139.19 45.8301 140.86 43.8901C142.53 41.9501 144.53 39.7601 145.36 37.3601C146.33 34.5801 144.56 32.2301 142.13 31.0601C141.46 30.7401 140.58 30.5001 140.32 29.7501C140.06 29.0001 140.29 28.1901 140.59 27.5301C141.43 25.6901 143.2 23.9901 144.66 22.6401C146.3 21.1401 148.08 19.8001 149.41 17.9901C150.47 16.5401 151.33 14.9701 151.15 13.1101C150.9 10.5001 149 9.08009 146.74 8.17009C144.48 7.26009 142.24 6.94009 140.01 6.24009C139.78 6.17009 139.56 6.09009 139.34 6.02009C138.4 5.71009 139.7 6.22009 138.92 5.84009C138.42 5.60009 137.95 5.31009 137.48 5.00009C137.2 4.82009 137.19 4.50009 137.21 4.86009C137.2 4.62009 137.42 4.45009 137.64 4.24009C139.98 2.02009 136.44 -1.50991 134.1 0.700094H134.13Z" fill="#02B0AA"/>
<path d="M186.929 68.2201C187.509 66.1001 188.839 63.9701 191.089 64.9001C192.199 65.3601 192.739 66.6201 193.239 67.6301C193.909 68.9701 194.779 70.0801 195.899 71.0801C197.949 72.9101 200.419 74.3101 203.259 74.0601C206.339 73.7901 208.859 72.0401 210.459 69.4401C211.209 68.2201 211.759 66.9101 212.349 65.6101C212.769 64.6901 213.179 63.8201 213.919 63.3301C214.409 63.0001 214.959 62.9701 215.499 62.7901C215.859 62.6701 214.779 62.7601 215.539 62.8001C215.679 62.8001 215.829 62.8001 215.969 62.8001C216.309 62.8001 215.469 62.6301 216.149 62.8301C216.309 62.8801 216.469 62.9201 216.619 62.9701C216.999 63.0801 216.099 62.6801 216.729 63.0101C217.179 63.2501 217.499 63.4501 217.729 63.6501C218.739 64.5401 219.229 65.6601 219.959 66.7601C221.519 69.1001 224.559 70.7101 227.309 70.9901C230.489 71.3201 233.459 69.1201 235.009 66.4901C236.559 63.8601 236.609 60.1001 235.949 57.1701C235.239 54.0301 230.419 55.3601 231.129 58.5001C231.549 60.3501 231.549 63.0801 230.209 64.6601C229.589 65.3901 228.769 65.9301 228.119 66.0401C228.119 66.0401 227.549 66.0001 227.349 65.9601C226.689 65.8101 226.109 65.5301 225.529 65.1901C224.539 64.5901 224.309 64.3301 223.839 63.4901C223.099 62.1801 222.189 60.9101 221.039 59.9301C219.499 58.6201 217.589 57.7601 215.549 57.8001C213.789 57.8301 211.999 58.5001 210.639 59.5801C208.459 61.3201 207.819 63.9701 206.519 66.3101C205.959 67.3001 205.449 68.1201 204.409 68.6401C204.019 68.8301 203.569 68.9701 203.079 69.0701C202.329 69.2301 203.499 69.0701 202.879 69.0901C202.499 69.0901 202.189 69.0701 201.819 68.9701C199.839 68.4501 198.399 66.7301 197.439 64.8201C195.689 61.3401 192.549 59.2401 188.579 59.8401C185.219 60.3501 182.959 63.8401 182.129 66.9001C181.299 69.9601 186.109 71.3401 186.949 68.2301L186.929 68.2201Z" fill="#EC648A"/>
<path d="M67.0591 89.28C67.1191 89.04 67.2092 88.8 67.2792 88.56C67.3492 88.39 67.3292 88.43 67.2292 88.68C67.2892 88.56 67.3491 88.44 67.4191 88.32C67.5191 88.15 67.6291 87.99 67.7391 87.82C67.4991 88.16 67.6792 87.9 67.8492 87.73C67.9792 87.59 68.1291 87.46 68.2691 87.33C68.6591 86.94 67.9491 87.51 68.3791 87.24C68.7491 87 69.1092 86.77 69.4992 86.58C69.6092 86.53 70.2892 86.23 69.7492 86.45C69.9392 86.37 70.1391 86.3 70.3391 86.23C70.7391 86.09 71.1491 85.96 71.5591 85.85C72.0091 85.72 72.4592 85.61 72.9192 85.51C73.1192 85.47 73.4892 85.46 73.6492 85.35C73.5892 85.39 72.8192 85.39 73.2192 85.42C74.3992 85.51 75.5792 85.53 76.7592 85.66C77.1292 85.7 77.4892 85.74 77.8492 85.78C78.0292 85.8 78.2192 85.84 78.3992 85.85C78.1192 85.83 77.8991 85.78 78.3091 85.84C78.7191 85.9 79.1192 85.94 79.4992 86.07C80.7392 86.48 82.2892 85.59 82.5792 84.32C82.8892 82.94 82.1592 81.69 80.8292 81.24C79.4992 80.79 77.9691 80.78 76.5891 80.64C75.2091 80.5 73.7592 80.28 72.3692 80.53C68.0492 81.29 63.4592 83.35 62.2592 87.97C61.9292 89.23 62.6792 90.74 64.0092 91.05C65.3392 91.36 66.7291 90.66 67.0891 89.3L67.0591 89.28Z" fill="#42AFE4"/>
<path d="M15.7402 140.03C17.3202 137.88 19.1802 135.93 21.2102 134.21C22.8802 132.8 25.0102 131.29 27.2902 131.31C31.2702 131.34 33.1002 136.22 33.0302 139.56C33.0102 140.58 32.8502 141.62 32.4602 142.56C32.2502 143.06 31.9502 143.56 31.6202 143.98C31.5302 144.1 31.4102 144.23 31.3102 144.33C31.2202 144.41 31.7502 144.43 31.4502 144.36C30.7202 144.2 30.1102 143.12 29.8202 142.51C29.4202 141.67 29.2302 140.71 29.1902 139.78C29.0202 135.59 31.1302 131.53 34.0702 128.65C35.7302 127.04 37.7302 125.7 39.9202 124.93C42.1102 124.16 44.6802 123.51 46.7202 124.81C49.4402 126.55 51.9502 122.23 49.2402 120.49C43.6402 116.9 35.7802 120.49 31.3302 124.38C26.8802 128.27 23.5502 134.73 24.2802 140.87C24.6602 144.04 26.1902 147.42 29.2502 148.82C33.1402 150.61 36.1302 147.11 37.3102 143.75C39.3302 138 37.0802 129.97 31.2902 127.24C23.3702 123.5 15.6302 131.74 11.4102 137.5C10.6102 138.59 11.2302 140.29 12.3102 140.92C13.5802 141.66 14.9302 141.12 15.7302 140.02L15.7402 140.03Z" fill="#42AFE4"/>
<path d="M74.3906 117.45C74.7406 120.99 75.3206 125.08 78.2206 127.52C79.9906 129.01 82.0706 129.45 84.3206 129.71C85.4806 129.84 87.6806 129.84 88.3006 131.04C89.0206 132.43 87.6406 134.79 87.3606 136.18C86.9406 138.26 86.9606 140.44 88.2606 142.21C89.5606 143.98 91.6606 144.68 93.7906 144.69C95.5206 144.69 97.2506 144.07 98.9706 144.26C100.401 144.42 100.311 145.43 99.5406 146.66C98.3806 148.5 96.5106 149.77 95.4006 151.69C93.7906 154.48 98.1106 157 99.7206 154.21C100.721 152.48 102.391 151.26 103.551 149.64C104.801 147.89 105.471 145.58 104.911 143.46C104.351 141.34 102.611 139.95 100.621 139.49C98.6306 139.03 96.9406 139.4 95.0506 139.62C93.9906 139.74 92.3106 140.04 92.1006 138.69C91.9706 137.9 92.2906 137 92.5206 136.25C92.8606 135.13 93.1906 134.04 93.3506 132.87C93.6706 130.41 92.8806 128.07 90.8506 126.58C89.1806 125.35 87.1706 125.03 85.1506 124.8C83.3806 124.6 81.6806 124.42 80.7206 122.77C79.7606 121.12 79.5706 119.23 79.4006 117.45C79.2706 116.11 78.3506 114.95 76.9006 114.95C75.6506 114.95 74.2706 116.1 74.4006 117.45H74.3906Z" fill="#02B0AA"/>
<path d="M118.05 69.3201C114.99 70.0601 112.9 73.0401 112.92 76.1401C112.94 79.4001 115.08 82.2301 117.76 83.8901C120.59 85.6301 124.07 86.2701 127.31 86.7501C130.72 87.2601 134.21 87.6301 137.64 87.1001C140.8 86.6201 143.67 85.0801 145.53 82.4401C147.26 79.9801 147.85 76.3601 146.12 73.7301C144.26 70.9101 140.55 70.9101 137.61 71.6701C134.86 72.3801 132.29 73.9601 130.35 76.0201C125.96 80.6701 124.84 87.5401 126.7 93.5601C127.59 96.4301 129.1 99.2301 131.31 101.3C133.75 103.58 136.85 104.69 140.16 104.82C143.47 104.95 146.53 104.22 149.42 102.92C152.13 101.7 155.19 99.6701 156.65 97.0101C158.41 93.8101 156.57 90.0801 153.17 89.0501C149.77 88.0201 146.27 89.6401 143.65 91.5501C140.84 93.5901 138.4 96.1701 136.28 98.9001C133.94 101.91 131.78 105.39 131.56 109.31C131.37 112.69 133 116.26 136.13 117.77C139.26 119.28 142.9 118.72 146.21 117.95C149.34 117.22 148.02 112.39 144.88 113.13C141.74 113.87 137.07 114.73 136.57 110.42C136.32 108.29 137.39 106.21 138.47 104.46C139.67 102.51 141.13 100.75 142.71 99.1001C144.18 97.5601 145.71 96.0501 147.55 94.9701C148.35 94.5001 151.75 92.7301 152.35 94.2601C152.51 94.6601 151.99 95.0701 151.69 95.3701C150.89 96.1901 150.03 96.8901 149.06 97.4901C147.29 98.5901 145.33 99.3001 143.27 99.6601C141.21 100.02 138.95 100 137.03 99.1901C135.3 98.4601 133.96 97.0501 133 95.4701C130.79 91.8501 130.18 87.2601 131.62 83.2501C132.85 79.8201 135.92 77.1301 139.49 76.3901C140.11 76.2601 140.94 76.1101 141.55 76.3001C142.16 76.4901 142.23 77.1101 142.18 77.7301C142.04 79.3401 140.78 80.6901 139.4 81.4101C137.24 82.5301 134.61 82.4601 132.25 82.3001C129.5 82.1201 126.76 81.7101 124.1 81.0401C122 80.5101 119.64 79.7301 118.47 77.7601C117.72 76.5001 117.73 74.5601 119.42 74.1501C122.55 73.4001 121.22 68.5701 118.09 69.3301L118.05 69.3201Z" fill="#FECB39"/>
<path d="M221.659 112.89C222.369 112.8 222.529 112.81 222.949 113.06C223.319 113.28 223.619 113.66 223.729 113.93C223.899 114.35 223.869 114.55 223.709 114.91C223.469 115.43 223.059 115.76 222.539 116.05C221.099 116.85 219.239 116.42 217.649 116.84C215.799 117.32 214.169 118.71 213.799 120.64C213.589 121.74 213.809 122.82 214.309 123.81C214.719 124.62 215.509 125.23 215.939 125.91C216.149 126.24 216.179 126.74 216.209 127.21C216.209 127.36 216.229 127.52 216.219 127.68C216.239 127.2 216.259 127.58 216.189 127.7C216.269 127.58 215.889 128.26 215.789 128.41C215.629 128.65 215.619 128.7 215.369 128.91C215.119 129.12 215.379 128.9 215.419 128.87C215.279 128.95 215.139 129.03 214.999 129.1C214.399 129.41 213.879 129.63 213.219 129.83C212.929 129.91 212.249 129.99 212.929 129.95C212.809 129.95 212.679 129.97 212.559 129.97C212.199 129.97 211.849 129.97 211.489 129.96C211.199 129.94 210.769 129.84 211.309 129.96C211.069 129.91 210.839 129.87 210.599 129.81C210.359 129.75 210.129 129.67 209.899 129.58C210.489 129.8 209.819 129.49 209.669 129.42C209.309 129.25 209.639 129.4 209.729 129.48C209.619 129.37 209.509 129.26 209.399 129.16C209.209 128.97 209.489 129.27 209.499 129.29C209.459 129.23 209.219 128.75 209.359 129.07C209.479 129.37 209.339 129.02 209.349 128.98C209.419 128.56 209.329 129.14 209.309 128.87C209.289 128.47 209.309 128.08 209.359 127.69C209.529 126.35 208.089 125.19 206.859 125.19C205.369 125.19 204.529 126.34 204.359 127.69C203.929 131.12 206.169 133.9 209.449 134.67C212.349 135.35 215.159 134.79 217.749 133.31C219.399 132.36 220.759 130.44 221.119 128.56C221.569 126.2 220.789 123.91 219.249 122.16C219.099 121.99 218.849 121.53 218.709 121.43L218.669 121.28C218.719 121.43 218.709 121.58 218.669 121.72C218.669 121.73 218.629 121.83 218.619 121.82C218.599 121.79 219.219 121.62 219.309 121.61C219.999 121.51 220.719 121.57 221.419 121.5C223.629 121.27 225.799 120.34 227.239 118.59C228.939 116.53 229.349 113.72 228.019 111.34C226.799 109.16 224.219 107.57 221.669 107.9C220.329 108.08 219.169 108.92 219.169 110.4C219.169 111.61 220.319 113.08 221.669 112.9L221.659 112.89Z" fill="#42AFE4"/>
<path d="M262.4 102.81C262.9 102.46 263.62 102.38 264.19 102.61C264.36 102.68 264.5 102.8 264.67 102.88C264.5 102.8 264.47 102.48 264.65 102.92C264.46 102.46 264.69 103.28 264.69 103.3C264.69 103.25 264.69 104.03 264.67 104.22C264.39 106.95 261.44 108 259.77 109.79C257.34 112.41 257.66 115.97 260.15 118.43C261.83 120.09 264.17 121.23 265.59 123.14C265.89 123.54 265.85 123.91 266.01 123.39C265.91 123.72 265.57 123.95 265.27 124.22C264.65 124.78 265.57 123.99 265.06 124.4C264.8 124.61 264.53 124.81 264.27 125.01C263.71 125.43 263.12 125.81 262.53 126.18C260.29 127.58 258.14 129.03 256.58 131.21C254.58 134.01 255.08 137.67 257.32 140.15C258.33 141.26 259.63 141.92 261 142.47C262.37 143.02 263.83 143.36 264.85 144.43C265.23 144.83 265.6 145.3 265.67 145.87C265.69 146.03 265.67 146.19 265.64 146.35C265.64 146.42 265.41 147.01 265.54 146.82C265.45 146.95 265.28 147.1 265.17 147.19C265.55 146.88 264.48 147.53 264.92 147.33C264.34 147.59 263.69 147.72 263.08 147.87C260.09 148.61 256.87 148.74 254.5 150.95C252.13 153.16 255.69 156.68 258.04 154.49C258.87 153.72 260.28 153.53 261.39 153.32C262.72 153.06 264.05 152.82 265.35 152.45C268.4 151.57 270.58 149.44 270.66 146.12C270.76 142.07 267.27 139.52 263.87 138.23C262.67 137.77 261.49 137.49 260.75 136.49C260.4 136.01 260.18 135.42 260.31 134.82C260.33 134.71 260.42 134.52 260.45 134.44C260.51 134.31 260.6 134.19 260.67 134.06C260.89 133.68 260.5 134.25 260.72 133.96C263.56 130.27 273.41 127.69 270.4 121.47C269.16 118.91 266.43 117.1 264.24 115.37C263.71 114.95 262.74 114.17 263.09 113.53C263.38 113.01 264.11 112.57 264.56 112.21C265.22 111.69 265.9 111.18 266.52 110.62C269.15 108.23 270.8 103.75 268.94 100.39C267.29 97.4299 262.57 96.5799 259.85 98.4799C258.74 99.2499 258.23 100.67 258.95 101.9C259.59 103 261.26 103.57 262.37 102.8L262.4 102.81Z" fill="#FECB39"/>
<path d="M261.62 185.81C262.33 185.98 263.05 186.15 263.75 186.36C264.04 186.45 264.34 186.54 264.62 186.65C264.77 186.7 264.92 186.77 265.07 186.82C265.36 186.93 264.58 186.59 264.98 186.79C265.54 187.07 266.07 187.36 266.58 187.72C266.97 187.99 266.19 187.36 266.57 187.72C266.67 187.81 266.77 187.9 266.87 187.99C267.12 188.22 267.33 188.47 267.56 188.71C267.77 188.92 267.29 188.27 267.51 188.66C267.59 188.8 267.68 188.93 267.76 189.08C267.88 189.3 267.89 189.61 267.78 189.08C267.81 189.23 267.9 189.4 267.95 189.55C268.05 189.87 268.13 190.2 268.19 190.54C268.21 190.64 268.22 191.12 268.22 190.72C268.22 190.3 268.23 190.91 268.24 191C268.35 192.36 268.26 193.73 268.17 195.1C268.08 196.47 269.38 197.66 270.67 197.6C272.1 197.54 273.08 196.5 273.17 195.1C273.38 191.71 273.47 188.09 271.2 185.32C269.13 182.8 266 181.74 262.94 181.03C261.67 180.74 260.17 181.42 259.86 182.78C259.57 184.06 260.24 185.54 261.61 185.86L261.62 185.81Z" fill="#02B0AA"/>
<path d="M286.919 164.07C287.159 166.49 286.979 176.29 286.709 178.25C286.529 179.54 287.019 181 288.459 181.33C289.639 181.6 291.339 180.97 291.539 179.58C292.269 174.43 292.449 169.26 291.929 164.08C291.799 162.78 290.869 161.52 289.429 161.58C288.189 161.64 286.789 162.69 286.929 164.08L286.919 164.07Z" fill="#FECB39"/>
<path d="M0 183.18C0.24 185.6 2.19 207.12 1.92 209.08C1.74 210.37 2.23 211.83 3.67 212.16C4.85 212.43 6.55 211.8 6.75 210.41C7.48 205.26 5.52 188.37 5.01 183.19C4.88 181.89 3.95 180.63 2.51 180.69C1.27 180.75 -0.13 181.8 0.01 183.19H0V183.18Z" fill="#EC6647"/>
<path d="M226.26 221.04C228.32 220.64 230.4 220.24 232.37 219.48C234.57 218.62 236.56 217.44 238.34 215.89C240.12 214.34 241.31 212.48 242.04 210.35C242.81 208.09 242.75 205.67 242.32 203.35C242.08 202.06 240.45 201.21 239.24 201.6C237.86 202.05 237.24 203.29 237.49 204.68C237.51 204.76 237.62 205.54 237.59 205.25C237.56 204.96 237.62 205.72 237.63 205.8C237.65 206.23 237.65 206.66 237.63 207.08C237.62 207.29 237.6 207.5 237.57 207.7C237.64 207.09 237.56 207.71 237.53 207.85C237.44 208.28 237.33 208.71 237.18 209.12C236.97 209.73 237.31 208.92 237.09 209.37C237 209.55 236.91 209.74 236.82 209.91C236.62 210.27 236.39 210.61 236.16 210.96C236 211.18 235.99 211.19 236.16 210.96C236.09 211.04 236.02 211.12 235.95 211.2C235.81 211.36 235.66 211.52 235.51 211.68C235.17 212.03 234.81 212.35 234.44 212.66C233.87 213.13 234.81 212.41 234.18 212.85C233.99 212.98 233.8 213.12 233.61 213.25C233.21 213.52 232.81 213.77 232.39 214C231.99 214.22 231.59 214.42 231.18 214.61C230.57 214.9 231.66 214.44 231.03 214.67C230.84 214.74 230.65 214.81 230.46 214.88C228.66 215.51 226.78 215.87 224.92 216.23C223.63 216.48 222.78 218.09 223.17 219.31C223.61 220.68 224.87 221.33 226.25 221.06L226.26 221.04Z" fill="#FECB39"/>
<path d="M219.011 254.59C220.681 253.2 222.571 252.05 224.551 251.16C225.381 250.79 226.241 250.48 227.111 250.22C227.651 250.06 228.191 249.9 228.741 249.78C228.961 249.72 229.191 249.68 229.411 249.65C229.901 249.69 230.001 249.68 229.721 249.62C229.801 249.64 229.951 249.93 229.971 250.07C230.091 250.87 229.961 251.43 229.751 252.16C229.241 253.94 228.811 255.94 229.831 257.64C232.301 261.76 238.801 258.62 241.461 256.36C241.811 256.06 243.031 255.22 243.101 254.75C242.341 253.84 242.081 253.73 242.311 254.42C242.321 254.64 242.341 254.86 242.371 255.08C242.411 255.56 242.441 256.04 242.461 256.52C242.571 259.02 242.381 261.51 241.881 263.96C241.611 265.28 242.261 266.66 243.631 267.04C244.861 267.38 246.441 266.62 246.711 265.29C247.161 263.04 247.451 260.74 247.491 258.44C247.521 256.46 247.641 253.92 246.801 252.08C245.801 249.89 243.241 249.26 241.141 250.22C239.401 251.02 238.341 252.73 236.651 253.64C235.971 254.01 235.251 254.25 234.491 254.43C234.441 254.44 233.651 254.55 233.641 254.57C233.641 254.57 234.281 255.29 234.211 255.31C234.141 255.33 234.521 253.69 234.581 253.49C234.811 252.68 234.961 251.84 235.001 251C235.081 249.3 234.621 247.46 233.421 246.2C231.881 244.59 229.701 244.47 227.641 244.91C223.151 245.86 218.991 248.14 215.481 251.05C214.441 251.91 214.591 253.69 215.481 254.59C216.511 255.62 217.971 255.46 219.021 254.59H219.011Z" fill="#42AFE4"/>
<path d="M68.0392 295.51C70.4792 295.75 72.9192 295.97 75.3792 295.91C77.6092 295.86 79.8292 295.67 82.0492 295.59C83.3592 295.54 84.6092 294.48 84.5492 293.09C84.4892 291.78 83.4492 290.54 82.0492 290.59C79.8292 290.68 77.5992 290.86 75.3792 290.91C72.9292 290.97 70.4792 290.75 68.0392 290.51C66.7292 290.38 65.4792 291.75 65.5392 293.01C65.6092 294.47 66.6392 295.37 68.0392 295.51Z" fill="#EC6647"/>
<path d="M124.21 213.41C121.23 217.11 119.6 221.81 120.07 226.59C120.2 227.89 121.13 229.15 122.57 229.09C123.82 229.03 125.21 227.98 125.07 226.59C124.97 225.59 124.96 224.59 125.06 223.59C125.07 223.47 125.08 223.34 125.1 223.22C125.05 223.57 125.05 223.61 125.09 223.33C125.12 223.14 125.15 222.96 125.19 222.77C125.28 222.28 125.4 221.79 125.54 221.31C125.68 220.83 125.85 220.36 126.03 219.89C126.26 219.3 125.8 220.37 126.07 219.8C126.18 219.57 126.28 219.35 126.4 219.12C126.63 218.67 126.88 218.24 127.15 217.82C127.29 217.61 127.43 217.4 127.57 217.2C127.64 217.1 127.72 217 127.79 216.9C127.59 217.16 127.58 217.18 127.75 216.96C128.18 216.43 128.48 215.91 128.48 215.19C128.48 214.58 128.21 213.84 127.75 213.42C126.84 212.58 125.09 212.33 124.21 213.42V213.41Z" fill="#42AFE4"/>
<path d="M81.2006 197.71C81.4106 197.36 81.6206 197.01 81.8506 196.67C81.9406 196.54 82.0406 196.4 82.1306 196.27C81.9006 196.58 82.2206 196.15 82.2706 196.1C82.7706 195.5 83.3106 194.94 83.8906 194.42C84.5606 193.82 84.6906 193.72 85.5406 193.18C86.2006 192.76 86.8906 192.39 87.5906 192.07C87.6306 192.05 88.0606 191.87 87.8606 191.95C87.6206 192.05 88.2006 191.83 88.2506 191.81C88.6406 191.67 89.0306 191.54 89.4206 191.43C89.7706 191.33 90.1306 191.24 90.4906 191.16C90.6906 191.12 90.8906 191.08 91.0906 191.04C91.1506 191.04 91.7806 190.94 91.4906 190.98C91.2206 191.01 91.9106 190.94 91.8906 190.95C92.0506 190.94 92.2206 190.93 92.3806 190.92C92.7906 190.9 93.2006 190.89 93.6106 190.91C94.0206 190.93 94.4306 190.95 94.8306 190.99C94.5606 190.96 94.7206 190.97 94.9006 190.99C95.1406 191.03 95.3806 191.08 95.6306 191.13C96.9506 191.4 98.3306 190.75 98.7106 189.38C99.0506 188.14 98.2906 186.58 96.9606 186.3C89.2006 184.71 80.8906 188.29 76.8906 195.18C75.2706 197.97 79.5906 200.49 81.2106 197.7L81.2006 197.71Z" fill="#DFBFDB"/>
<path d="M46.56 177.73C50.41 178.47 53.22 175.48 55.96 173.26C58.7 171.04 61.42 168.84 64.15 166.64C65.17 165.81 65.07 163.95 64.15 163.1C63.07 162.1 61.7 162.22 60.61 163.1C58.19 165.06 55.77 167.01 53.36 168.97C52.19 169.92 51.01 170.85 49.85 171.81C49.62 171.99 49.59 172.02 49.77 171.88C49.64 171.98 49.5 172.08 49.36 172.18C49.08 172.37 48.79 172.53 48.5 172.71C48.23 172.84 48.2 172.86 48.43 172.76C48.28 172.82 48.13 172.86 47.97 172.9C48.25 172.88 48.24 172.88 47.94 172.9C47.64 172.89 47.63 172.9 47.89 172.91C46.61 172.66 45.13 173.27 44.81 174.66C44.53 175.9 45.18 177.47 46.56 177.74V177.73Z" fill="#FECB39"/>
<path d="M51.1599 233.86C49.4499 235.4 47.3999 236.51 45.1899 237.15C44.1199 237.46 43.0499 237.67 41.9399 237.73C41.3399 237.77 40.7499 237.77 40.1499 237.75C39.8899 237.74 39.6199 237.72 39.3599 237.7C38.6399 237.63 38.9299 237.54 39.1899 237.87L39.8299 238.97C39.7299 238.62 39.6999 238.62 39.7499 238.97C39.7799 238.79 39.8299 238.62 39.9099 238.46C40.0899 238.05 40.3999 237.66 40.6699 237.32C41.3299 236.49 42.0799 235.71 42.8499 234.98C44.3499 233.57 46.0399 232.4 47.8599 231.44C49.6799 230.48 51.6899 229.63 53.6799 229.4C55.4499 229.19 56.3599 230.17 56.7199 231.84C57.1199 233.71 56.8699 235.88 56.5799 237.76C56.2699 239.81 55.7299 241.83 54.9999 243.77C54.2699 245.71 53.3399 247.36 52.2199 248.98C51.6799 249.75 51.0899 250.48 50.4399 251.16C50.0899 251.53 49.7299 251.9 49.3499 252.25C49.1599 252.43 48.9699 252.6 48.7799 252.77C48.3899 253.1 48.3899 253.1 48.7799 252.8H50.1099C50.5099 252.85 50.6599 253.71 50.3599 252.86C50.2499 252.55 50.1199 252.26 50.0299 251.95C49.8599 251.41 49.7399 250.85 49.6699 250.28C49.5299 248.99 49.6299 247.67 49.9299 246.41C50.5499 243.78 51.8699 241.43 53.3499 239.19C55.1299 236.5 50.7999 233.99 49.0299 236.67C46.8699 239.95 45.1599 243.52 44.7199 247.47C44.4999 249.47 44.6499 251.58 45.2799 253.5C45.9099 255.42 46.9099 257.53 49.1199 257.68C51.0899 257.82 52.5799 256.19 53.8399 254.86C55.0999 253.53 56.1199 252.19 57.0599 250.72C58.9399 247.78 60.2699 244.43 61.0299 241.03C61.7899 237.63 62.3899 233.56 61.4299 230.13C60.9299 228.34 59.8999 226.72 58.3799 225.63C56.6599 224.39 54.5799 224.26 52.5499 224.57C49.0999 225.11 45.6299 226.73 42.7699 228.7C39.9099 230.67 36.4399 233.53 35.1599 236.92C34.3499 239.05 34.8399 241.82 37.3499 242.45C39.2499 242.93 41.3899 242.87 43.3199 242.62C47.5899 242.08 51.4899 240.29 54.6899 237.42C57.0899 235.27 53.5499 231.74 51.1499 233.88L51.1599 233.86Z" fill="#02B0AA"/>
<path d="M121.071 260.52C119.441 257.05 115.181 255.38 111.641 256.8C107.631 258.41 105.981 262.8 107.211 266.83C107.811 268.78 108.921 270.44 110.191 272.01C110.731 272.69 111.331 273.33 111.861 274.01C112.161 274.4 112.761 275.16 112.851 275.57C112.931 275.95 112.411 276.86 112.241 277.1C111.901 277.57 111.671 277.64 111.101 277.75C110.801 277.81 110.241 277.75 109.811 277.53C109.531 277.38 109.641 277.44 109.301 277.1C109.051 276.85 108.821 276.58 108.591 276.32C107.691 275.31 105.971 275.4 105.051 276.32C104.051 277.32 104.151 278.85 105.051 279.86C106.141 281.09 107.361 282.14 108.991 282.55C110.801 283 112.781 282.75 114.381 281.78C115.981 280.81 117.151 278.97 117.651 277.17C118.221 275.07 117.411 273.17 116.181 271.49C114.541 269.26 110.721 266.08 111.981 262.89C112.401 261.84 113.451 261.22 114.451 261.26C115.451 261.3 116.261 261.98 116.761 263.04C117.331 264.26 119.091 264.58 120.181 263.94C121.431 263.21 121.651 261.75 121.081 260.52H121.071Z" fill="#DFBFDB"/>
<path d="M151.69 289.5C149.12 291.46 147.87 294.69 148.9 297.86C149.93 301.03 152.83 302.88 155.96 303.18C159.26 303.5 162.42 301.62 164.22 298.93C165.03 297.73 165.23 296.2 166.05 295.04C166.09 294.98 166.59 294.44 166.34 294.63C166.28 294.67 166.17 294.55 166.13 294.51C166.24 294.64 166.68 295.09 166.66 295.07C167.41 296.01 168 297.05 168.94 297.83C170.44 299.06 172.38 299.45 174.25 298.91C177.5 297.97 179.17 295.19 180.77 292.46C181.11 291.88 181.44 291.29 181.88 290.79C182.05 290.59 182.36 290.4 182.49 290.18L182.67 290.07C183.18 289.81 182.88 289.69 181.75 289.71C181.64 289.83 181.63 288.81 181.79 289.89C181.83 290.18 181.99 290.52 182.08 290.8C182.4 291.71 182.79 292.53 183.43 293.26C185.34 295.43 188.77 295.99 191.44 295.14C194.73 294.09 197.57 291.09 197.47 287.48C197.36 283.55 193.49 280.41 189.65 281.39C186.53 282.19 187.86 287.01 190.98 286.21C192.3 285.87 192.71 287.83 192.11 288.78C191.24 290.16 189.37 290.85 187.93 290.36C187.36 290.17 187.12 289.99 186.9 289.46C186.42 288.3 186.21 287.1 185.28 286.17C182.87 283.75 179.6 285.64 177.86 287.84C176.48 289.59 175.73 292.17 173.93 293.54C172.13 294.91 171.8 293.67 170.78 292.32C169.19 290.2 166.77 288.83 164.16 290.16C163.02 290.74 162.11 291.75 161.51 292.87C160.91 293.99 160.65 295.35 159.87 296.41C158.74 297.96 156.67 298.74 154.92 297.78C153.61 297.06 152.79 294.87 154.17 293.81C155.24 292.99 155.81 291.66 155.07 290.39C154.45 289.33 152.73 288.67 151.65 289.49L151.69 289.5Z" fill="#FECB39"/>
<path d="M233.911 297.9C233.991 297.5 234.091 297.11 234.251 296.74C234.151 296.99 234.221 296.81 234.301 296.68C234.401 296.51 234.501 296.33 234.601 296.16C234.641 296.1 234.951 295.67 234.711 295.98C234.811 295.85 234.921 295.73 235.031 295.61C235.171 295.46 235.311 295.32 235.461 295.18C235.551 295.09 235.881 294.81 235.611 295.02C236.911 293.99 238.191 293.68 239.751 293.68C241.311 293.68 242.791 294.08 243.901 294.71C244.081 294.81 244.261 294.92 244.431 295.03C244.481 295.06 244.971 295.42 244.781 295.27C244.611 295.13 245.091 295.56 245.081 295.56C245.201 295.67 245.301 295.79 245.421 295.91C245.711 296.21 245.421 295.86 245.551 296.07C245.661 296.24 245.761 296.41 245.861 296.58C245.951 296.73 245.981 296.88 245.901 296.64C245.981 296.87 246.041 297.1 246.091 297.34C246.381 298.66 247.911 299.43 249.171 299.09C250.531 298.72 251.211 297.34 250.921 296.01C249.851 291.13 244.331 288.69 239.761 288.69C234.971 288.69 230.111 291.69 229.101 296.6C228.831 297.92 229.491 299.3 230.851 299.68C232.091 300.02 233.651 299.26 233.931 297.93L233.911 297.9Z" fill="#DFBFDB"/>
<path d="M159.769 243.8C162.289 245.61 165.429 245.8 168.389 245.24C171.149 244.72 174.129 243.49 176.189 241.54C178.249 239.59 179.659 236.68 180.259 233.89C180.949 230.65 180.569 227.61 179.479 224.52C177.469 218.81 173.159 213.2 166.709 212.42C163.699 212.05 160.409 213.21 158.829 215.93C157.249 218.65 157.819 222.31 160.399 224.09C162.249 225.37 164.759 226.05 166.969 226.3C168.259 226.45 169.509 226.32 170.799 226.24C172.439 226.14 173.989 226.17 175.539 225.54C178.179 224.47 180.589 222.75 181.929 220.18C183.119 217.9 183.779 215.16 183.579 212.59C183.339 209.66 182.079 207.11 180.219 204.87C179.379 203.86 178.419 202.94 177.479 202.02C176.459 201.01 175.529 199.91 174.489 198.93C172.269 196.86 169.239 195.41 166.199 196.5C162.999 197.65 161.449 201.03 162.909 204.16C164.479 207.53 168.579 208.61 172.019 208.34C175.459 208.07 178.519 206.54 181.229 204.46C182.669 203.35 183.989 202.26 184.879 200.64C185.609 199.31 186.229 197.8 186.579 196.32C187.419 192.84 186.539 189.61 184.549 186.7C183.789 185.59 182.349 185.09 181.129 185.8C180.029 186.45 179.469 188.1 180.229 189.22C181.259 190.73 182.119 192.29 181.919 194.18C181.749 195.72 181.009 197.83 179.999 199C178.729 200.47 176.689 201.74 174.939 202.53C173.189 203.32 171.189 203.64 169.319 203.2C168.599 203.03 166.619 202.05 167.559 201.35C168.719 200.49 170.379 201.88 171.239 202.74C172.719 204.21 174.179 205.73 175.629 207.23C176.879 208.53 177.929 209.94 178.409 211.71C179.049 214.11 178.209 218.16 176.019 219.61C175.219 220.14 174.369 220.7 173.459 221.02C172.429 221.37 171.199 221.21 170.119 221.3C168.469 221.43 166.959 221.4 165.379 220.87C164.659 220.63 164.049 220.41 163.479 220.11C163.119 219.92 162.999 219.83 162.999 219.25C162.999 217.78 164.729 217.27 166.019 217.36C167.889 217.49 169.789 218.76 171.129 219.99C172.469 221.22 173.509 222.88 174.229 224.61C175.129 226.78 175.859 229.04 175.659 231.41C175.479 233.47 174.689 235.64 173.399 237.27C172.109 238.9 170.149 239.66 168.239 240.17C166.169 240.73 164.129 240.79 162.339 239.5C161.239 238.71 159.559 239.31 158.919 240.4C158.179 241.66 158.719 243.03 159.819 243.82L159.769 243.8Z" fill="#EC648A"/>
<path d="M145.35 140.92C142.23 141.03 138.9 142.68 137.4 145.54C136.08 148.06 136.32 151.61 137.55 154.12C138.65 156.37 140.91 158.66 143.18 159.73C145.73 160.92 148.64 161.02 151.38 160.6C156.89 159.76 160.27 155.6 163.14 151.16C163.4 150.76 163.66 150.36 163.94 149.97C164.05 149.82 164.16 149.67 164.27 149.53C164.22 149.6 163.95 149.93 164.25 149.56C164.57 149.17 164.9 148.78 165.26 148.42C165.99 147.67 166.08 147.56 166.85 147.11C167.01 147.02 167.17 146.93 167.33 146.86C167.71 146.68 166.79 147.06 167.42 146.84C167.55 146.8 168.18 146.71 167.56 146.77C167.68 146.76 168.57 146.77 167.91 146.74C168.37 146.77 168.73 147 169.21 147.75C169.69 148.5 169.59 149.79 169.58 150.89C169.57 151.99 169.61 153.03 169.63 154.1C169.67 156.29 169.97 158.57 170.8 160.61C172.02 163.6 174.53 165.86 177.95 165.49C182.53 165 186.25 161.41 189.32 158.27C192.79 154.73 197.37 150.59 202.82 152.08C205.49 152.81 208.1 154.99 209.81 157.12C211.86 159.66 212.57 163.38 212.6 166.55C212.63 169.72 217.64 169.77 217.6 166.55C217.56 163.33 216.85 159.82 215.4 156.76C214.22 154.27 212.3 152.32 210.18 150.6C207.77 148.64 205.09 147.18 201.96 146.88C199.04 146.6 196.05 147.34 193.44 148.62C189.35 150.63 186.62 154.23 183.3 157.19C182.46 157.93 181.58 158.61 180.63 159.21C179.61 159.85 179.14 160.12 178.25 160.38C178.04 160.44 177.07 160.58 177.77 160.52C177.49 160.54 177.2 160.5 176.92 160.54C176.36 160.61 177.5 160.48 176.97 160.54C176.84 160.55 176.67 160.44 176.55 160.41C177.2 160.53 176.59 160.39 176.27 160.2C176.92 160.59 176.32 160.19 176.14 160.04C176.01 159.93 175.74 159.51 176.16 160.11C176.08 159.99 175.98 159.88 175.91 159.75C175.79 159.54 175.67 159.32 175.55 159.1C175.47 158.96 175.28 158.46 175.55 159.15C175.49 159.01 175.43 158.87 175.39 158.72C175.22 158.19 175.06 157.65 174.94 157.1C174.89 156.86 174.85 156.61 174.8 156.37C174.77 156.23 174.76 156.08 174.73 155.94C174.87 156.77 174.75 156.11 174.73 155.92C174.52 153.65 174.67 151.37 174.54 149.1C174.38 146.38 173.18 143.89 170.73 142.51C168.74 141.39 166.45 141.63 164.49 142.68C161.97 144.05 160.22 146.49 158.69 148.83C157.16 151.17 155.46 153.79 152.99 154.96C150.76 156.01 147.98 156.12 145.72 155.4C145.04 155.18 144.02 154.35 143.27 153.56C142.36 152.61 141.82 151.79 141.63 150.59C141.47 149.6 141.43 148.33 142.01 147.57C142.78 146.57 144.1 145.97 145.34 145.93C148.55 145.82 148.56 140.82 145.34 140.93L145.35 140.92Z" fill="#DFBFDB"/>
</g>
<defs>
<clipPath id="clip0_140_1153">
<rect width="292.21" height="303.22" fill="white"/>
</clipPath>
</defs>
</svg>
